<?xml version="1.0" encoding="utf-8" standalone="no"?>
<!DOCTYPE svg PUBLIC "-//W3C//DTD SVG 1.1//EN"
  "http://www.w3.org/Graphics/SVG/1.1/DTD/svg11.dtd">
<svg xmlns:xlink="http://www.w3.org/1999/xlink" width="1105.92pt" height="543.168pt" viewBox="0 0 1105.92 543.168" xmlns="http://www.w3.org/2000/svg" version="1.1">
 <metadata>
  <rdf:RDF xmlns:dc="http://purl.org/dc/elements/1.1/" xmlns:cc="http://creativecommons.org/ns#" xmlns:rdf="http://www.w3.org/1999/02/22-rdf-syntax-ns#">
   <cc:Work>
    <dc:type rdf:resource="http://purl.org/dc/dcmitype/StillImage"/>
    <dc:date>2026-03-15T17:00:08.715107</dc:date>
    <dc:format>image/svg+xml</dc:format>
    <dc:creator>
     <cc:Agent>
      <dc:title>Matplotlib v3.5.3, https://matplotlib.org/</dc:title>
     </cc:Agent>
    </dc:creator>
   </cc:Work>
  </rdf:RDF>
 </metadata>
 <defs>
  <style type="text/css">*{stroke-linejoin: round; stroke-linecap: butt}</style>
 </defs>
 <g id="figure_1">
  <g id="patch_1">
   <path d="M 0 543.168 
L 1105.92 543.168 
L 1105.92 0 
L 0 0 
z
" style="fill: #ffffff"/>
  </g>
  <g id="axes_1">
   <g id="patch_2">
    <path d="M 138.24 483.41952 
L 995.328 483.41952 
L 995.328 65.18016 
L 138.24 65.18016 
z
" style="fill: #ffffff"/>
   </g>
   <g id="matplotlib.axis_1">
    <g id="xtick_1">
     <g id="line2d_1">
      <path d="M 258.048 483.41952 
L 258.048 65.18016 
" clip-path="url(#p2a479e6f21)" style="fill: none; stroke: #b0b0b0; stroke-width: 0.25; stroke-linecap: square"/>
     </g>
     <g id="line2d_2">
      <defs>
       <path id="m087c0db493" d="M 0 0 
L 0 3.5 
" style="stroke: #000000; stroke-width: 0.8"/>
      </defs>
      <g>
       <use xlink:href="#m087c0db493" x="258.048" y="483.41952" style="stroke: #000000; stroke-width: 0.8"/>
      </g>
     </g>
     <g id="text_1">
      <!-- 0.2 -->
      <g transform="translate(250.096438 498.017958)scale(0.1 -0.1)">
       <defs>
        <path id="DejaVuSans-30" d="M 2034 4250 
Q 1547 4250 1301 3770 
Q 1056 3291 1056 2328 
Q 1056 1369 1301 889 
Q 1547 409 2034 409 
Q 2525 409 2770 889 
Q 3016 1369 3016 2328 
Q 3016 3291 2770 3770 
Q 2525 4250 2034 4250 
z
M 2034 4750 
Q 2819 4750 3233 4129 
Q 3647 3509 3647 2328 
Q 3647 1150 3233 529 
Q 2819 -91 2034 -91 
Q 1250 -91 836 529 
Q 422 1150 422 2328 
Q 422 3509 836 4129 
Q 1250 4750 2034 4750 
z
" transform="scale(0.015625)"/>
        <path id="DejaVuSans-2e" d="M 684 794 
L 1344 794 
L 1344 0 
L 684 0 
L 684 794 
z
" transform="scale(0.015625)"/>
        <path id="DejaVuSans-32" d="M 1228 531 
L 3431 531 
L 3431 0 
L 469 0 
L 469 531 
Q 828 903 1448 1529 
Q 2069 2156 2228 2338 
Q 2531 2678 2651 2914 
Q 2772 3150 2772 3378 
Q 2772 3750 2511 3984 
Q 2250 4219 1831 4219 
Q 1534 4219 1204 4116 
Q 875 4013 500 3803 
L 500 4441 
Q 881 4594 1212 4672 
Q 1544 4750 1819 4750 
Q 2544 4750 2975 4387 
Q 3406 4025 3406 3419 
Q 3406 3131 3298 2873 
Q 3191 2616 2906 2266 
Q 2828 2175 2409 1742 
Q 1991 1309 1228 531 
z
" transform="scale(0.015625)"/>
       </defs>
       <use xlink:href="#DejaVuSans-30"/>
       <use xlink:href="#DejaVuSans-2e" x="63.623047"/>
       <use xlink:href="#DejaVuSans-32" x="95.410156"/>
      </g>
     </g>
    </g>
    <g id="xtick_2">
     <g id="line2d_3">
      <path d="M 442.368 483.41952 
L 442.368 65.18016 
" clip-path="url(#p2a479e6f21)" style="fill: none; stroke: #b0b0b0; stroke-width: 0.25; stroke-linecap: square"/>
     </g>
     <g id="line2d_4">
      <g>
       <use xlink:href="#m087c0db493" x="442.368" y="483.41952" style="stroke: #000000; stroke-width: 0.8"/>
      </g>
     </g>
     <g id="text_2">
      <!-- 0.4 -->
      <g transform="translate(434.416438 498.017958)scale(0.1 -0.1)">
       <defs>
        <path id="DejaVuSans-34" d="M 2419 4116 
L 825 1625 
L 2419 1625 
L 2419 4116 
z
M 2253 4666 
L 3047 4666 
L 3047 1625 
L 3713 1625 
L 3713 1100 
L 3047 1100 
L 3047 0 
L 2419 0 
L 2419 1100 
L 313 1100 
L 313 1709 
L 2253 4666 
z
" transform="scale(0.015625)"/>
       </defs>
       <use xlink:href="#DejaVuSans-30"/>
       <use xlink:href="#DejaVuSans-2e" x="63.623047"/>
       <use xlink:href="#DejaVuSans-34" x="95.410156"/>
      </g>
     </g>
    </g>
    <g id="xtick_3">
     <g id="line2d_5">
      <path d="M 626.688 483.41952 
L 626.688 65.18016 
" clip-path="url(#p2a479e6f21)" style="fill: none; stroke: #b0b0b0; stroke-width: 0.25; stroke-linecap: square"/>
     </g>
     <g id="line2d_6">
      <g>
       <use xlink:href="#m087c0db493" x="626.688" y="483.41952" style="stroke: #000000; stroke-width: 0.8"/>
      </g>
     </g>
     <g id="text_3">
      <!-- 0.6 -->
      <g transform="translate(618.736438 498.017958)scale(0.1 -0.1)">
       <defs>
        <path id="DejaVuSans-36" d="M 2113 2584 
Q 1688 2584 1439 2293 
Q 1191 2003 1191 1497 
Q 1191 994 1439 701 
Q 1688 409 2113 409 
Q 2538 409 2786 701 
Q 3034 994 3034 1497 
Q 3034 2003 2786 2293 
Q 2538 2584 2113 2584 
z
M 3366 4563 
L 3366 3988 
Q 3128 4100 2886 4159 
Q 2644 4219 2406 4219 
Q 1781 4219 1451 3797 
Q 1122 3375 1075 2522 
Q 1259 2794 1537 2939 
Q 1816 3084 2150 3084 
Q 2853 3084 3261 2657 
Q 3669 2231 3669 1497 
Q 3669 778 3244 343 
Q 2819 -91 2113 -91 
Q 1303 -91 875 529 
Q 447 1150 447 2328 
Q 447 3434 972 4092 
Q 1497 4750 2381 4750 
Q 2619 4750 2861 4703 
Q 3103 4656 3366 4563 
z
" transform="scale(0.015625)"/>
       </defs>
       <use xlink:href="#DejaVuSans-30"/>
       <use xlink:href="#DejaVuSans-2e" x="63.623047"/>
       <use xlink:href="#DejaVuSans-36" x="95.410156"/>
      </g>
     </g>
    </g>
    <g id="xtick_4">
     <g id="line2d_7">
      <path d="M 811.008 483.41952 
L 811.008 65.18016 
" clip-path="url(#p2a479e6f21)" style="fill: none; stroke: #b0b0b0; stroke-width: 0.25; stroke-linecap: square"/>
     </g>
     <g id="line2d_8">
      <g>
       <use xlink:href="#m087c0db493" x="811.008" y="483.41952" style="stroke: #000000; stroke-width: 0.8"/>
      </g>
     </g>
     <g id="text_4">
      <!-- 0.8 -->
      <g transform="translate(803.056438 498.017958)scale(0.1 -0.1)">
       <defs>
        <path id="DejaVuSans-38" d="M 2034 2216 
Q 1584 2216 1326 1975 
Q 1069 1734 1069 1313 
Q 1069 891 1326 650 
Q 1584 409 2034 409 
Q 2484 409 2743 651 
Q 3003 894 3003 1313 
Q 3003 1734 2745 1975 
Q 2488 2216 2034 2216 
z
M 1403 2484 
Q 997 2584 770 2862 
Q 544 3141 544 3541 
Q 544 4100 942 4425 
Q 1341 4750 2034 4750 
Q 2731 4750 3128 4425 
Q 3525 4100 3525 3541 
Q 3525 3141 3298 2862 
Q 3072 2584 2669 2484 
Q 3125 2378 3379 2068 
Q 3634 1759 3634 1313 
Q 3634 634 3220 271 
Q 2806 -91 2034 -91 
Q 1263 -91 848 271 
Q 434 634 434 1313 
Q 434 1759 690 2068 
Q 947 2378 1403 2484 
z
M 1172 3481 
Q 1172 3119 1398 2916 
Q 1625 2713 2034 2713 
Q 2441 2713 2670 2916 
Q 2900 3119 2900 3481 
Q 2900 3844 2670 4047 
Q 2441 4250 2034 4250 
Q 1625 4250 1398 4047 
Q 1172 3844 1172 3481 
z
" transform="scale(0.015625)"/>
       </defs>
       <use xlink:href="#DejaVuSans-30"/>
       <use xlink:href="#DejaVuSans-2e" x="63.623047"/>
       <use xlink:href="#DejaVuSans-38" x="95.410156"/>
      </g>
     </g>
    </g>
    <g id="xtick_5">
     <g id="line2d_9">
      <path d="M 995.328 483.41952 
L 995.328 65.18016 
" clip-path="url(#p2a479e6f21)" style="fill: none; stroke: #b0b0b0; stroke-width: 0.25; stroke-linecap: square"/>
     </g>
     <g id="line2d_10">
      <g>
       <use xlink:href="#m087c0db493" x="995.328" y="483.41952" style="stroke: #000000; stroke-width: 0.8"/>
      </g>
     </g>
     <g id="text_5">
      <!-- 1.0 -->
      <g transform="translate(987.376438 498.017958)scale(0.1 -0.1)">
       <defs>
        <path id="DejaVuSans-31" d="M 794 531 
L 1825 531 
L 1825 4091 
L 703 3866 
L 703 4441 
L 1819 4666 
L 2450 4666 
L 2450 531 
L 3481 531 
L 3481 0 
L 794 0 
L 794 531 
z
" transform="scale(0.015625)"/>
       </defs>
       <use xlink:href="#DejaVuSans-31"/>
       <use xlink:href="#DejaVuSans-2e" x="63.623047"/>
       <use xlink:href="#DejaVuSans-30" x="95.410156"/>
      </g>
     </g>
    </g>
    <g id="text_6">
     <!-- parameter $\mu$ -->
     <g transform="translate(535.584 511.67577)scale(0.1 -0.1)">
      <defs>
       <path id="DejaVuSans-70" d="M 1159 525 
L 1159 -1331 
L 581 -1331 
L 581 3500 
L 1159 3500 
L 1159 2969 
Q 1341 3281 1617 3432 
Q 1894 3584 2278 3584 
Q 2916 3584 3314 3078 
Q 3713 2572 3713 1747 
Q 3713 922 3314 415 
Q 2916 -91 2278 -91 
Q 1894 -91 1617 61 
Q 1341 213 1159 525 
z
M 3116 1747 
Q 3116 2381 2855 2742 
Q 2594 3103 2138 3103 
Q 1681 3103 1420 2742 
Q 1159 2381 1159 1747 
Q 1159 1113 1420 752 
Q 1681 391 2138 391 
Q 2594 391 2855 752 
Q 3116 1113 3116 1747 
z
" transform="scale(0.015625)"/>
       <path id="DejaVuSans-61" d="M 2194 1759 
Q 1497 1759 1228 1600 
Q 959 1441 959 1056 
Q 959 750 1161 570 
Q 1363 391 1709 391 
Q 2188 391 2477 730 
Q 2766 1069 2766 1631 
L 2766 1759 
L 2194 1759 
z
M 3341 1997 
L 3341 0 
L 2766 0 
L 2766 531 
Q 2569 213 2275 61 
Q 1981 -91 1556 -91 
Q 1019 -91 701 211 
Q 384 513 384 1019 
Q 384 1609 779 1909 
Q 1175 2209 1959 2209 
L 2766 2209 
L 2766 2266 
Q 2766 2663 2505 2880 
Q 2244 3097 1772 3097 
Q 1472 3097 1187 3025 
Q 903 2953 641 2809 
L 641 3341 
Q 956 3463 1253 3523 
Q 1550 3584 1831 3584 
Q 2591 3584 2966 3190 
Q 3341 2797 3341 1997 
z
" transform="scale(0.015625)"/>
       <path id="DejaVuSans-72" d="M 2631 2963 
Q 2534 3019 2420 3045 
Q 2306 3072 2169 3072 
Q 1681 3072 1420 2755 
Q 1159 2438 1159 1844 
L 1159 0 
L 581 0 
L 581 3500 
L 1159 3500 
L 1159 2956 
Q 1341 3275 1631 3429 
Q 1922 3584 2338 3584 
Q 2397 3584 2469 3576 
Q 2541 3569 2628 3553 
L 2631 2963 
z
" transform="scale(0.015625)"/>
       <path id="DejaVuSans-6d" d="M 3328 2828 
Q 3544 3216 3844 3400 
Q 4144 3584 4550 3584 
Q 5097 3584 5394 3201 
Q 5691 2819 5691 2113 
L 5691 0 
L 5113 0 
L 5113 2094 
Q 5113 2597 4934 2840 
Q 4756 3084 4391 3084 
Q 3944 3084 3684 2787 
Q 3425 2491 3425 1978 
L 3425 0 
L 2847 0 
L 2847 2094 
Q 2847 2600 2669 2842 
Q 2491 3084 2119 3084 
Q 1678 3084 1418 2786 
Q 1159 2488 1159 1978 
L 1159 0 
L 581 0 
L 581 3500 
L 1159 3500 
L 1159 2956 
Q 1356 3278 1631 3431 
Q 1906 3584 2284 3584 
Q 2666 3584 2933 3390 
Q 3200 3197 3328 2828 
z
" transform="scale(0.015625)"/>
       <path id="DejaVuSans-65" d="M 3597 1894 
L 3597 1613 
L 953 1613 
Q 991 1019 1311 708 
Q 1631 397 2203 397 
Q 2534 397 2845 478 
Q 3156 559 3463 722 
L 3463 178 
Q 3153 47 2828 -22 
Q 2503 -91 2169 -91 
Q 1331 -91 842 396 
Q 353 884 353 1716 
Q 353 2575 817 3079 
Q 1281 3584 2069 3584 
Q 2775 3584 3186 3129 
Q 3597 2675 3597 1894 
z
M 3022 2063 
Q 3016 2534 2758 2815 
Q 2500 3097 2075 3097 
Q 1594 3097 1305 2825 
Q 1016 2553 972 2059 
L 3022 2063 
z
" transform="scale(0.015625)"/>
       <path id="DejaVuSans-74" d="M 1172 4494 
L 1172 3500 
L 2356 3500 
L 2356 3053 
L 1172 3053 
L 1172 1153 
Q 1172 725 1289 603 
Q 1406 481 1766 481 
L 2356 481 
L 2356 0 
L 1766 0 
Q 1100 0 847 248 
Q 594 497 594 1153 
L 594 3053 
L 172 3053 
L 172 3500 
L 594 3500 
L 594 4494 
L 1172 4494 
z
" transform="scale(0.015625)"/>
       <path id="DejaVuSans-20" transform="scale(0.015625)"/>
       <path id="DejaVuSans-Oblique-3bc" d="M -84 -1331 
L 856 3500 
L 1434 3500 
L 1009 1322 
Q 997 1256 987 1175 
Q 978 1094 978 1013 
Q 978 722 1161 565 
Q 1344 409 1684 409 
Q 2147 409 2431 671 
Q 2716 934 2816 1459 
L 3213 3500 
L 3788 3500 
L 3266 809 
Q 3253 750 3248 706 
Q 3244 663 3244 628 
Q 3244 531 3283 486 
Q 3322 441 3406 441 
Q 3438 441 3492 456 
Q 3547 472 3647 513 
L 3559 50 
Q 3422 -19 3297 -55 
Q 3172 -91 3053 -91 
Q 2847 -91 2730 40 
Q 2613 172 2613 403 
Q 2438 153 2195 31 
Q 1953 -91 1625 -91 
Q 1334 -91 1117 43 
Q 900 178 831 397 
L 494 -1331 
L -84 -1331 
z
" transform="scale(0.015625)"/>
      </defs>
      <use xlink:href="#DejaVuSans-70" transform="translate(0 0.78125)"/>
      <use xlink:href="#DejaVuSans-61" transform="translate(63.476562 0.78125)"/>
      <use xlink:href="#DejaVuSans-72" transform="translate(124.755859 0.78125)"/>
      <use xlink:href="#DejaVuSans-61" transform="translate(165.869141 0.78125)"/>
      <use xlink:href="#DejaVuSans-6d" transform="translate(227.148438 0.78125)"/>
      <use xlink:href="#DejaVuSans-65" transform="translate(324.560547 0.78125)"/>
      <use xlink:href="#DejaVuSans-74" transform="translate(386.083984 0.78125)"/>
      <use xlink:href="#DejaVuSans-65" transform="translate(425.292969 0.78125)"/>
      <use xlink:href="#DejaVuSans-72" transform="translate(486.816406 0.78125)"/>
      <use xlink:href="#DejaVuSans-20" transform="translate(527.929688 0.78125)"/>
      <use xlink:href="#DejaVuSans-Oblique-3bc" transform="translate(559.716797 0.78125)"/>
     </g>
    </g>
   </g>
   <g id="matplotlib.axis_2">
    <g id="ytick_1">
     <g id="line2d_11">
      <path d="M 138.24 483.41952 
L 995.328 483.41952 
" clip-path="url(#p2a479e6f21)" style="fill: none; stroke: #b0b0b0; stroke-width: 0.25; stroke-linecap: square"/>
     </g>
     <g id="line2d_12">
      <defs>
       <path id="m9fbc57ad6b" d="M 0 0 
L -3.5 0 
" style="stroke: #000000; stroke-width: 0.8"/>
      </defs>
      <g>
       <use xlink:href="#m9fbc57ad6b" x="138.24" y="483.41952" style="stroke: #000000; stroke-width: 0.8"/>
      </g>
     </g>
     <g id="text_7">
      <!-- 0 -->
      <g transform="translate(124.8775 487.218739)scale(0.1 -0.1)">
       <use xlink:href="#DejaVuSans-30"/>
      </g>
     </g>
    </g>
    <g id="ytick_2">
     <g id="line2d_13">
      <path d="M 138.24 399.771648 
L 995.328 399.771648 
" clip-path="url(#p2a479e6f21)" style="fill: none; stroke: #b0b0b0; stroke-width: 0.25; stroke-linecap: square"/>
     </g>
     <g id="line2d_14">
      <g>
       <use xlink:href="#m9fbc57ad6b" x="138.24" y="399.771648" style="stroke: #000000; stroke-width: 0.8"/>
      </g>
     </g>
     <g id="text_8">
      <!-- 1 -->
      <g transform="translate(124.8775 403.570867)scale(0.1 -0.1)">
       <use xlink:href="#DejaVuSans-31"/>
      </g>
     </g>
    </g>
    <g id="ytick_3">
     <g id="line2d_15">
      <path d="M 138.24 316.123776 
L 995.328 316.123776 
" clip-path="url(#p2a479e6f21)" style="fill: none; stroke: #b0b0b0; stroke-width: 0.25; stroke-linecap: square"/>
     </g>
     <g id="line2d_16">
      <g>
       <use xlink:href="#m9fbc57ad6b" x="138.24" y="316.123776" style="stroke: #000000; stroke-width: 0.8"/>
      </g>
     </g>
     <g id="text_9">
      <!-- 2 -->
      <g transform="translate(124.8775 319.922995)scale(0.1 -0.1)">
       <use xlink:href="#DejaVuSans-32"/>
      </g>
     </g>
    </g>
    <g id="ytick_4">
     <g id="line2d_17">
      <path d="M 138.24 232.475904 
L 995.328 232.475904 
" clip-path="url(#p2a479e6f21)" style="fill: none; stroke: #b0b0b0; stroke-width: 0.25; stroke-linecap: square"/>
     </g>
     <g id="line2d_18">
      <g>
       <use xlink:href="#m9fbc57ad6b" x="138.24" y="232.475904" style="stroke: #000000; stroke-width: 0.8"/>
      </g>
     </g>
     <g id="text_10">
      <!-- 3 -->
      <g transform="translate(124.8775 236.275123)scale(0.1 -0.1)">
       <defs>
        <path id="DejaVuSans-33" d="M 2597 2516 
Q 3050 2419 3304 2112 
Q 3559 1806 3559 1356 
Q 3559 666 3084 287 
Q 2609 -91 1734 -91 
Q 1441 -91 1130 -33 
Q 819 25 488 141 
L 488 750 
Q 750 597 1062 519 
Q 1375 441 1716 441 
Q 2309 441 2620 675 
Q 2931 909 2931 1356 
Q 2931 1769 2642 2001 
Q 2353 2234 1838 2234 
L 1294 2234 
L 1294 2753 
L 1863 2753 
Q 2328 2753 2575 2939 
Q 2822 3125 2822 3475 
Q 2822 3834 2567 4026 
Q 2313 4219 1838 4219 
Q 1578 4219 1281 4162 
Q 984 4106 628 3988 
L 628 4550 
Q 988 4650 1302 4700 
Q 1616 4750 1894 4750 
Q 2613 4750 3031 4423 
Q 3450 4097 3450 3541 
Q 3450 3153 3228 2886 
Q 3006 2619 2597 2516 
z
" transform="scale(0.015625)"/>
       </defs>
       <use xlink:href="#DejaVuSans-33"/>
      </g>
     </g>
    </g>
    <g id="ytick_5">
     <g id="line2d_19">
      <path d="M 138.24 148.828032 
L 995.328 148.828032 
" clip-path="url(#p2a479e6f21)" style="fill: none; stroke: #b0b0b0; stroke-width: 0.25; stroke-linecap: square"/>
     </g>
     <g id="line2d_20">
      <g>
       <use xlink:href="#m9fbc57ad6b" x="138.24" y="148.828032" style="stroke: #000000; stroke-width: 0.8"/>
      </g>
     </g>
     <g id="text_11">
      <!-- 4 -->
      <g transform="translate(124.8775 152.627251)scale(0.1 -0.1)">
       <use xlink:href="#DejaVuSans-34"/>
      </g>
     </g>
    </g>
    <g id="ytick_6">
     <g id="line2d_21">
      <path d="M 138.24 65.18016 
L 995.328 65.18016 
" clip-path="url(#p2a479e6f21)" style="fill: none; stroke: #b0b0b0; stroke-width: 0.25; stroke-linecap: square"/>
     </g>
     <g id="line2d_22">
      <g>
       <use xlink:href="#m9fbc57ad6b" x="138.24" y="65.18016" style="stroke: #000000; stroke-width: 0.8"/>
      </g>
     </g>
     <g id="text_12">
      <!-- 5 -->
      <g transform="translate(124.8775 68.979379)scale(0.1 -0.1)">
       <defs>
        <path id="DejaVuSans-35" d="M 691 4666 
L 3169 4666 
L 3169 4134 
L 1269 4134 
L 1269 2991 
Q 1406 3038 1543 3061 
Q 1681 3084 1819 3084 
Q 2600 3084 3056 2656 
Q 3513 2228 3513 1497 
Q 3513 744 3044 326 
Q 2575 -91 1722 -91 
Q 1428 -91 1123 -41 
Q 819 9 494 109 
L 494 744 
Q 775 591 1075 516 
Q 1375 441 1709 441 
Q 2250 441 2565 725 
Q 2881 1009 2881 1497 
Q 2881 1984 2565 2268 
Q 2250 2553 1709 2553 
Q 1456 2553 1204 2497 
Q 953 2441 691 2322 
L 691 4666 
z
" transform="scale(0.015625)"/>
       </defs>
       <use xlink:href="#DejaVuSans-35"/>
      </g>
     </g>
    </g>
    <g id="text_13">
     <!-- sensitivity $\mathcal{S}\,(\mu)$ -->
     <g transform="translate(107.5575 312.44984)rotate(-90)scale(0.1 -0.1)">
      <defs>
       <path id="DejaVuSans-73" d="M 2834 3397 
L 2834 2853 
Q 2591 2978 2328 3040 
Q 2066 3103 1784 3103 
Q 1356 3103 1142 2972 
Q 928 2841 928 2578 
Q 928 2378 1081 2264 
Q 1234 2150 1697 2047 
L 1894 2003 
Q 2506 1872 2764 1633 
Q 3022 1394 3022 966 
Q 3022 478 2636 193 
Q 2250 -91 1575 -91 
Q 1294 -91 989 -36 
Q 684 19 347 128 
L 347 722 
Q 666 556 975 473 
Q 1284 391 1588 391 
Q 1994 391 2212 530 
Q 2431 669 2431 922 
Q 2431 1156 2273 1281 
Q 2116 1406 1581 1522 
L 1381 1569 
Q 847 1681 609 1914 
Q 372 2147 372 2553 
Q 372 3047 722 3315 
Q 1072 3584 1716 3584 
Q 2034 3584 2315 3537 
Q 2597 3491 2834 3397 
z
" transform="scale(0.015625)"/>
       <path id="DejaVuSans-6e" d="M 3513 2113 
L 3513 0 
L 2938 0 
L 2938 2094 
Q 2938 2591 2744 2837 
Q 2550 3084 2163 3084 
Q 1697 3084 1428 2787 
Q 1159 2491 1159 1978 
L 1159 0 
L 581 0 
L 581 3500 
L 1159 3500 
L 1159 2956 
Q 1366 3272 1645 3428 
Q 1925 3584 2291 3584 
Q 2894 3584 3203 3211 
Q 3513 2838 3513 2113 
z
" transform="scale(0.015625)"/>
       <path id="DejaVuSans-69" d="M 603 3500 
L 1178 3500 
L 1178 0 
L 603 0 
L 603 3500 
z
M 603 4863 
L 1178 4863 
L 1178 4134 
L 603 4134 
L 603 4863 
z
" transform="scale(0.015625)"/>
       <path id="DejaVuSans-76" d="M 191 3500 
L 800 3500 
L 1894 563 
L 2988 3500 
L 3597 3500 
L 2284 0 
L 1503 0 
L 191 3500 
z
" transform="scale(0.015625)"/>
       <path id="DejaVuSans-79" d="M 2059 -325 
Q 1816 -950 1584 -1140 
Q 1353 -1331 966 -1331 
L 506 -1331 
L 506 -850 
L 844 -850 
Q 1081 -850 1212 -737 
Q 1344 -625 1503 -206 
L 1606 56 
L 191 3500 
L 800 3500 
L 1894 763 
L 2988 3500 
L 3597 3500 
L 2059 -325 
z
" transform="scale(0.015625)"/>
       <path id="STIXNonUnicode-Italic-e23f" d="M 243 1235 
L 410 1254 
Q 518 582 1139 365 
Q 1421 262 1766 262 
Q 2304 262 2685 515 
Q 3066 768 3066 1235 
Q 3066 1427 2883 1571 
Q 2701 1715 2445 1817 
Q 2189 1920 1929 2045 
Q 1670 2170 1488 2403 
Q 1306 2637 1306 2970 
Q 1306 3290 1507 3555 
Q 1709 3821 2000 3974 
Q 2291 4128 2572 4211 
Q 2854 4294 3059 4294 
Q 3603 4294 3948 4134 
Q 4294 3974 4294 3642 
Q 4294 3462 4182 3299 
Q 4070 3136 3853 3136 
Q 3712 3136 3603 3232 
Q 3494 3328 3494 3456 
Q 3494 3603 3590 3708 
Q 3686 3814 3686 3840 
Q 3686 3917 3628 3965 
Q 3571 4013 3456 4032 
Q 3341 4051 3264 4054 
Q 3187 4058 3059 4058 
Q 2931 4058 2745 4010 
Q 2560 3962 2352 3866 
Q 2144 3770 2000 3581 
Q 1856 3392 1856 3155 
Q 1856 2931 2057 2771 
Q 2259 2611 2550 2502 
Q 2842 2394 3133 2269 
Q 3424 2144 3625 1920 
Q 3827 1696 3827 1376 
Q 3827 902 3206 451 
Q 2586 0 1805 0 
Q 992 0 617 339 
Q 243 678 243 1235 
z
" transform="scale(0.015625)"/>
       <path id="DejaVuSans-28" d="M 1984 4856 
Q 1566 4138 1362 3434 
Q 1159 2731 1159 2009 
Q 1159 1288 1364 580 
Q 1569 -128 1984 -844 
L 1484 -844 
Q 1016 -109 783 600 
Q 550 1309 550 2009 
Q 550 2706 781 3412 
Q 1013 4119 1484 4856 
L 1984 4856 
z
" transform="scale(0.015625)"/>
       <path id="DejaVuSans-29" d="M 513 4856 
L 1013 4856 
Q 1481 4119 1714 3412 
Q 1947 2706 1947 2009 
Q 1947 1309 1714 600 
Q 1481 -109 1013 -844 
L 513 -844 
Q 928 -128 1133 580 
Q 1338 1288 1338 2009 
Q 1338 2731 1133 3434 
Q 928 4138 513 4856 
z
" transform="scale(0.015625)"/>
      </defs>
      <use xlink:href="#DejaVuSans-73" transform="translate(0 0.015625)"/>
      <use xlink:href="#DejaVuSans-65" transform="translate(52.099609 0.015625)"/>
      <use xlink:href="#DejaVuSans-6e" transform="translate(113.623047 0.015625)"/>
      <use xlink:href="#DejaVuSans-73" transform="translate(177.001953 0.015625)"/>
      <use xlink:href="#DejaVuSans-69" transform="translate(229.101562 0.015625)"/>
      <use xlink:href="#DejaVuSans-74" transform="translate(256.884766 0.015625)"/>
      <use xlink:href="#DejaVuSans-69" transform="translate(296.09375 0.015625)"/>
      <use xlink:href="#DejaVuSans-76" transform="translate(323.876953 0.015625)"/>
      <use xlink:href="#DejaVuSans-69" transform="translate(383.056641 0.015625)"/>
      <use xlink:href="#DejaVuSans-74" transform="translate(410.839844 0.015625)"/>
      <use xlink:href="#DejaVuSans-79" transform="translate(450.048828 0.015625)"/>
      <use xlink:href="#DejaVuSans-20" transform="translate(509.228516 0.015625)"/>
      <use xlink:href="#STIXNonUnicode-Italic-e23f" transform="translate(541.015625 0.015625)"/>
      <use xlink:href="#DejaVuSans-28" transform="translate(620.651295 0.015625)"/>
      <use xlink:href="#DejaVuSans-Oblique-3bc" transform="translate(659.664967 0.015625)"/>
      <use xlink:href="#DejaVuSans-29" transform="translate(723.288014 0.015625)"/>
     </g>
     <!-- elasticity $\mathcal{E}\,(\mu)$ -->
     <g transform="translate(118.7775 309.09984)rotate(-90)scale(0.1 -0.1)">
      <defs>
       <path id="DejaVuSans-6c" d="M 603 4863 
L 1178 4863 
L 1178 0 
L 603 0 
L 603 4863 
z
" transform="scale(0.015625)"/>
       <path id="DejaVuSans-63" d="M 3122 3366 
L 3122 2828 
Q 2878 2963 2633 3030 
Q 2388 3097 2138 3097 
Q 1578 3097 1268 2742 
Q 959 2388 959 1747 
Q 959 1106 1268 751 
Q 1578 397 2138 397 
Q 2388 397 2633 464 
Q 2878 531 3122 666 
L 3122 134 
Q 2881 22 2623 -34 
Q 2366 -91 2075 -91 
Q 1284 -91 818 406 
Q 353 903 353 1747 
Q 353 2603 823 3093 
Q 1294 3584 2113 3584 
Q 2378 3584 2631 3529 
Q 2884 3475 3122 3366 
z
" transform="scale(0.015625)"/>
       <path id="STIXNonUnicode-Italic-e231" d="M 3270 973 
L 3373 858 
Q 2893 346 2272 128 
Q 1856 -26 1331 -26 
Q 896 -26 576 169 
Q 256 365 256 736 
Q 256 1267 659 1651 
Q 1062 2035 1619 2259 
Q 1485 2323 1414 2368 
Q 1344 2413 1257 2493 
Q 1171 2573 1132 2688 
Q 1094 2803 1094 2963 
Q 1094 3309 1401 3629 
Q 1709 3949 2112 4118 
Q 2515 4288 2848 4288 
Q 3296 4288 3565 4128 
Q 3834 3968 3834 3654 
Q 3834 3514 3718 3338 
Q 3603 3162 3373 3162 
Q 3238 3162 3132 3251 
Q 3027 3341 3027 3475 
Q 3027 3622 3123 3731 
Q 3219 3840 3219 3859 
Q 3219 3981 3148 4029 
Q 3078 4077 2918 4077 
Q 2432 4077 2038 3792 
Q 1645 3507 1645 3155 
Q 1645 2893 1881 2742 
Q 2118 2592 2502 2592 
L 2938 2592 
L 2880 2349 
Q 2605 2349 2275 2243 
Q 1946 2138 1645 1958 
Q 1344 1779 1142 1494 
Q 941 1210 941 896 
Q 941 614 1155 467 
Q 1370 320 1741 320 
Q 2131 320 2576 515 
Q 3021 710 3270 973 
z
" transform="scale(0.015625)"/>
      </defs>
      <use xlink:href="#DejaVuSans-65" transform="translate(0 0.015625)"/>
      <use xlink:href="#DejaVuSans-6c" transform="translate(61.523438 0.015625)"/>
      <use xlink:href="#DejaVuSans-61" transform="translate(89.306641 0.015625)"/>
      <use xlink:href="#DejaVuSans-73" transform="translate(150.585938 0.015625)"/>
      <use xlink:href="#DejaVuSans-74" transform="translate(202.685547 0.015625)"/>
      <use xlink:href="#DejaVuSans-69" transform="translate(241.894531 0.015625)"/>
      <use xlink:href="#DejaVuSans-63" transform="translate(269.677734 0.015625)"/>
      <use xlink:href="#DejaVuSans-69" transform="translate(324.658203 0.015625)"/>
      <use xlink:href="#DejaVuSans-74" transform="translate(352.441406 0.015625)"/>
      <use xlink:href="#DejaVuSans-79" transform="translate(391.650391 0.015625)"/>
      <use xlink:href="#DejaVuSans-20" transform="translate(450.830078 0.015625)"/>
      <use xlink:href="#STIXNonUnicode-Italic-e231" transform="translate(482.617188 0.015625)"/>
      <use xlink:href="#DejaVuSans-28" transform="translate(554.152852 0.015625)"/>
      <use xlink:href="#DejaVuSans-Oblique-3bc" transform="translate(593.166523 0.015625)"/>
      <use xlink:href="#DejaVuSans-29" transform="translate(656.78957 0.015625)"/>
     </g>
    </g>
   </g>
   <g id="line2d_23">
    <path d="M 138.24 78.115053 
L 146.897455 78.115053 
L 155.554909 78.115053 
L 164.212364 78.115053 
L 172.869818 78.115053 
L 181.527273 78.115053 
L 190.184727 78.115053 
L 198.842182 78.115053 
L 207.499636 78.115053 
L 216.157091 78.115053 
L 224.814545 78.115053 
L 233.472 78.115053 
L 242.129455 78.115053 
L 250.786909 78.115053 
L 259.444364 78.115053 
L 268.101818 78.115053 
L 276.759273 78.115053 
L 285.416727 78.115053 
L 294.074182 78.115053 
L 302.731636 78.115053 
L 311.389091 78.115053 
L 320.046545 78.115053 
L 328.704 78.115053 
L 337.361455 78.115053 
L 346.018909 78.115053 
L 354.676364 78.115053 
L 363.333818 78.115053 
L 371.991273 78.115053 
L 380.648727 78.115053 
L 389.306182 78.115053 
L 397.963636 78.115053 
L 406.621091 78.115053 
L 415.278545 78.115053 
L 423.936 78.115053 
L 432.593455 78.115053 
L 441.250909 78.115053 
L 449.908364 78.115053 
L 458.565818 78.115053 
L 467.223273 78.115053 
L 475.880727 78.115053 
L 484.538182 78.115053 
L 493.195636 78.115053 
L 501.853091 78.115053 
L 510.510545 78.115053 
L 519.168 78.115053 
L 527.825455 78.115053 
L 536.482909 78.115053 
L 545.140364 78.115053 
L 553.797818 78.115053 
L 562.455273 78.115053 
L 571.112727 78.115053 
L 579.770182 78.115053 
L 588.427636 78.115053 
L 597.085091 78.115053 
L 605.742545 78.115053 
L 614.4 78.115053 
L 623.057455 78.115053 
L 631.714909 78.115053 
L 640.372364 78.115053 
L 649.029818 78.115053 
L 657.687273 78.115053 
L 666.344727 78.115053 
L 675.002182 78.115053 
L 683.659636 78.115053 
L 692.317091 78.115053 
L 700.974545 78.115053 
L 709.632 78.115053 
L 718.289455 78.115053 
L 726.946909 78.115053 
L 735.604364 78.115053 
L 744.261818 78.115053 
L 752.919273 78.115053 
L 761.576727 78.115053 
L 770.234182 78.115053 
L 778.891636 78.115053 
L 787.549091 78.115053 
L 796.206545 78.115053 
L 804.864 78.115053 
L 813.521455 78.115053 
L 822.178909 78.115053 
L 830.836364 78.115053 
L 839.493818 78.115053 
L 848.151273 78.115053 
L 856.808727 78.115053 
L 865.466182 78.115053 
L 874.123636 78.115053 
L 882.781091 78.115053 
L 891.438545 78.115053 
L 900.096 78.115053 
L 908.753455 78.115053 
L 917.410909 78.115053 
L 926.068364 78.115053 
L 934.725818 78.115053 
L 943.383273 78.115053 
L 952.040727 78.115053 
L 960.698182 78.115053 
L 969.355636 78.115053 
L 978.013091 78.115053 
L 986.670545 78.115053 
L 995.328 78.115053 
" clip-path="url(#p2a479e6f21)" style="fill: none; stroke: #1e90ff; stroke-width: 1.5; stroke-linecap: square"/>
    <defs>
     <path id="ma4b584d94e" d="M 0 1.5 
C 0.397805 1.5 0.77937 1.341951 1.06066 1.06066 
C 1.341951 0.77937 1.5 0.397805 1.5 0 
C 1.5 -0.397805 1.341951 -0.77937 1.06066 -1.06066 
C 0.77937 -1.341951 0.397805 -1.5 0 -1.5 
C -0.397805 -1.5 -0.77937 -1.341951 -1.06066 -1.06066 
C -1.341951 -0.77937 -1.5 -0.397805 -1.5 0 
C -1.5 0.397805 -1.341951 0.77937 -1.06066 1.06066 
C -0.77937 1.341951 -0.397805 1.5 0 1.5 
z
" style="stroke: #1e90ff"/>
    </defs>
    <g clip-path="url(#p2a479e6f21)">
     <use xlink:href="#ma4b584d94e" x="138.24" y="78.115053" style="fill: #1e90ff; stroke: #1e90ff"/>
     <use xlink:href="#ma4b584d94e" x="146.897455" y="78.115053" style="fill: #1e90ff; stroke: #1e90ff"/>
     <use xlink:href="#ma4b584d94e" x="155.554909" y="78.115053" style="fill: #1e90ff; stroke: #1e90ff"/>
     <use xlink:href="#ma4b584d94e" x="164.212364" y="78.115053" style="fill: #1e90ff; stroke: #1e90ff"/>
     <use xlink:href="#ma4b584d94e" x="172.869818" y="78.115053" style="fill: #1e90ff; stroke: #1e90ff"/>
     <use xlink:href="#ma4b584d94e" x="181.527273" y="78.115053" style="fill: #1e90ff; stroke: #1e90ff"/>
     <use xlink:href="#ma4b584d94e" x="190.184727" y="78.115053" style="fill: #1e90ff; stroke: #1e90ff"/>
     <use xlink:href="#ma4b584d94e" x="198.842182" y="78.115053" style="fill: #1e90ff; stroke: #1e90ff"/>
     <use xlink:href="#ma4b584d94e" x="207.499636" y="78.115053" style="fill: #1e90ff; stroke: #1e90ff"/>
     <use xlink:href="#ma4b584d94e" x="216.157091" y="78.115053" style="fill: #1e90ff; stroke: #1e90ff"/>
     <use xlink:href="#ma4b584d94e" x="224.814545" y="78.115053" style="fill: #1e90ff; stroke: #1e90ff"/>
     <use xlink:href="#ma4b584d94e" x="233.472" y="78.115053" style="fill: #1e90ff; stroke: #1e90ff"/>
     <use xlink:href="#ma4b584d94e" x="242.129455" y="78.115053" style="fill: #1e90ff; stroke: #1e90ff"/>
     <use xlink:href="#ma4b584d94e" x="250.786909" y="78.115053" style="fill: #1e90ff; stroke: #1e90ff"/>
     <use xlink:href="#ma4b584d94e" x="259.444364" y="78.115053" style="fill: #1e90ff; stroke: #1e90ff"/>
     <use xlink:href="#ma4b584d94e" x="268.101818" y="78.115053" style="fill: #1e90ff; stroke: #1e90ff"/>
     <use xlink:href="#ma4b584d94e" x="276.759273" y="78.115053" style="fill: #1e90ff; stroke: #1e90ff"/>
     <use xlink:href="#ma4b584d94e" x="285.416727" y="78.115053" style="fill: #1e90ff; stroke: #1e90ff"/>
     <use xlink:href="#ma4b584d94e" x="294.074182" y="78.115053" style="fill: #1e90ff; stroke: #1e90ff"/>
     <use xlink:href="#ma4b584d94e" x="302.731636" y="78.115053" style="fill: #1e90ff; stroke: #1e90ff"/>
     <use xlink:href="#ma4b584d94e" x="311.389091" y="78.115053" style="fill: #1e90ff; stroke: #1e90ff"/>
     <use xlink:href="#ma4b584d94e" x="320.046545" y="78.115053" style="fill: #1e90ff; stroke: #1e90ff"/>
     <use xlink:href="#ma4b584d94e" x="328.704" y="78.115053" style="fill: #1e90ff; stroke: #1e90ff"/>
     <use xlink:href="#ma4b584d94e" x="337.361455" y="78.115053" style="fill: #1e90ff; stroke: #1e90ff"/>
     <use xlink:href="#ma4b584d94e" x="346.018909" y="78.115053" style="fill: #1e90ff; stroke: #1e90ff"/>
     <use xlink:href="#ma4b584d94e" x="354.676364" y="78.115053" style="fill: #1e90ff; stroke: #1e90ff"/>
     <use xlink:href="#ma4b584d94e" x="363.333818" y="78.115053" style="fill: #1e90ff; stroke: #1e90ff"/>
     <use xlink:href="#ma4b584d94e" x="371.991273" y="78.115053" style="fill: #1e90ff; stroke: #1e90ff"/>
     <use xlink:href="#ma4b584d94e" x="380.648727" y="78.115053" style="fill: #1e90ff; stroke: #1e90ff"/>
     <use xlink:href="#ma4b584d94e" x="389.306182" y="78.115053" style="fill: #1e90ff; stroke: #1e90ff"/>
     <use xlink:href="#ma4b584d94e" x="397.963636" y="78.115053" style="fill: #1e90ff; stroke: #1e90ff"/>
     <use xlink:href="#ma4b584d94e" x="406.621091" y="78.115053" style="fill: #1e90ff; stroke: #1e90ff"/>
     <use xlink:href="#ma4b584d94e" x="415.278545" y="78.115053" style="fill: #1e90ff; stroke: #1e90ff"/>
     <use xlink:href="#ma4b584d94e" x="423.936" y="78.115053" style="fill: #1e90ff; stroke: #1e90ff"/>
     <use xlink:href="#ma4b584d94e" x="432.593455" y="78.115053" style="fill: #1e90ff; stroke: #1e90ff"/>
     <use xlink:href="#ma4b584d94e" x="441.250909" y="78.115053" style="fill: #1e90ff; stroke: #1e90ff"/>
     <use xlink:href="#ma4b584d94e" x="449.908364" y="78.115053" style="fill: #1e90ff; stroke: #1e90ff"/>
     <use xlink:href="#ma4b584d94e" x="458.565818" y="78.115053" style="fill: #1e90ff; stroke: #1e90ff"/>
     <use xlink:href="#ma4b584d94e" x="467.223273" y="78.115053" style="fill: #1e90ff; stroke: #1e90ff"/>
     <use xlink:href="#ma4b584d94e" x="475.880727" y="78.115053" style="fill: #1e90ff; stroke: #1e90ff"/>
     <use xlink:href="#ma4b584d94e" x="484.538182" y="78.115053" style="fill: #1e90ff; stroke: #1e90ff"/>
     <use xlink:href="#ma4b584d94e" x="493.195636" y="78.115053" style="fill: #1e90ff; stroke: #1e90ff"/>
     <use xlink:href="#ma4b584d94e" x="501.853091" y="78.115053" style="fill: #1e90ff; stroke: #1e90ff"/>
     <use xlink:href="#ma4b584d94e" x="510.510545" y="78.115053" style="fill: #1e90ff; stroke: #1e90ff"/>
     <use xlink:href="#ma4b584d94e" x="519.168" y="78.115053" style="fill: #1e90ff; stroke: #1e90ff"/>
     <use xlink:href="#ma4b584d94e" x="527.825455" y="78.115053" style="fill: #1e90ff; stroke: #1e90ff"/>
     <use xlink:href="#ma4b584d94e" x="536.482909" y="78.115053" style="fill: #1e90ff; stroke: #1e90ff"/>
     <use xlink:href="#ma4b584d94e" x="545.140364" y="78.115053" style="fill: #1e90ff; stroke: #1e90ff"/>
     <use xlink:href="#ma4b584d94e" x="553.797818" y="78.115053" style="fill: #1e90ff; stroke: #1e90ff"/>
     <use xlink:href="#ma4b584d94e" x="562.455273" y="78.115053" style="fill: #1e90ff; stroke: #1e90ff"/>
     <use xlink:href="#ma4b584d94e" x="571.112727" y="78.115053" style="fill: #1e90ff; stroke: #1e90ff"/>
     <use xlink:href="#ma4b584d94e" x="579.770182" y="78.115053" style="fill: #1e90ff; stroke: #1e90ff"/>
     <use xlink:href="#ma4b584d94e" x="588.427636" y="78.115053" style="fill: #1e90ff; stroke: #1e90ff"/>
     <use xlink:href="#ma4b584d94e" x="597.085091" y="78.115053" style="fill: #1e90ff; stroke: #1e90ff"/>
     <use xlink:href="#ma4b584d94e" x="605.742545" y="78.115053" style="fill: #1e90ff; stroke: #1e90ff"/>
     <use xlink:href="#ma4b584d94e" x="614.4" y="78.115053" style="fill: #1e90ff; stroke: #1e90ff"/>
     <use xlink:href="#ma4b584d94e" x="623.057455" y="78.115053" style="fill: #1e90ff; stroke: #1e90ff"/>
     <use xlink:href="#ma4b584d94e" x="631.714909" y="78.115053" style="fill: #1e90ff; stroke: #1e90ff"/>
     <use xlink:href="#ma4b584d94e" x="640.372364" y="78.115053" style="fill: #1e90ff; stroke: #1e90ff"/>
     <use xlink:href="#ma4b584d94e" x="649.029818" y="78.115053" style="fill: #1e90ff; stroke: #1e90ff"/>
     <use xlink:href="#ma4b584d94e" x="657.687273" y="78.115053" style="fill: #1e90ff; stroke: #1e90ff"/>
     <use xlink:href="#ma4b584d94e" x="666.344727" y="78.115053" style="fill: #1e90ff; stroke: #1e90ff"/>
     <use xlink:href="#ma4b584d94e" x="675.002182" y="78.115053" style="fill: #1e90ff; stroke: #1e90ff"/>
     <use xlink:href="#ma4b584d94e" x="683.659636" y="78.115053" style="fill: #1e90ff; stroke: #1e90ff"/>
     <use xlink:href="#ma4b584d94e" x="692.317091" y="78.115053" style="fill: #1e90ff; stroke: #1e90ff"/>
     <use xlink:href="#ma4b584d94e" x="700.974545" y="78.115053" style="fill: #1e90ff; stroke: #1e90ff"/>
     <use xlink:href="#ma4b584d94e" x="709.632" y="78.115053" style="fill: #1e90ff; stroke: #1e90ff"/>
     <use xlink:href="#ma4b584d94e" x="718.289455" y="78.115053" style="fill: #1e90ff; stroke: #1e90ff"/>
     <use xlink:href="#ma4b584d94e" x="726.946909" y="78.115053" style="fill: #1e90ff; stroke: #1e90ff"/>
     <use xlink:href="#ma4b584d94e" x="735.604364" y="78.115053" style="fill: #1e90ff; stroke: #1e90ff"/>
     <use xlink:href="#ma4b584d94e" x="744.261818" y="78.115053" style="fill: #1e90ff; stroke: #1e90ff"/>
     <use xlink:href="#ma4b584d94e" x="752.919273" y="78.115053" style="fill: #1e90ff; stroke: #1e90ff"/>
     <use xlink:href="#ma4b584d94e" x="761.576727" y="78.115053" style="fill: #1e90ff; stroke: #1e90ff"/>
     <use xlink:href="#ma4b584d94e" x="770.234182" y="78.115053" style="fill: #1e90ff; stroke: #1e90ff"/>
     <use xlink:href="#ma4b584d94e" x="778.891636" y="78.115053" style="fill: #1e90ff; stroke: #1e90ff"/>
     <use xlink:href="#ma4b584d94e" x="787.549091" y="78.115053" style="fill: #1e90ff; stroke: #1e90ff"/>
     <use xlink:href="#ma4b584d94e" x="796.206545" y="78.115053" style="fill: #1e90ff; stroke: #1e90ff"/>
     <use xlink:href="#ma4b584d94e" x="804.864" y="78.115053" style="fill: #1e90ff; stroke: #1e90ff"/>
     <use xlink:href="#ma4b584d94e" x="813.521455" y="78.115053" style="fill: #1e90ff; stroke: #1e90ff"/>
     <use xlink:href="#ma4b584d94e" x="822.178909" y="78.115053" style="fill: #1e90ff; stroke: #1e90ff"/>
     <use xlink:href="#ma4b584d94e" x="830.836364" y="78.115053" style="fill: #1e90ff; stroke: #1e90ff"/>
     <use xlink:href="#ma4b584d94e" x="839.493818" y="78.115053" style="fill: #1e90ff; stroke: #1e90ff"/>
     <use xlink:href="#ma4b584d94e" x="848.151273" y="78.115053" style="fill: #1e90ff; stroke: #1e90ff"/>
     <use xlink:href="#ma4b584d94e" x="856.808727" y="78.115053" style="fill: #1e90ff; stroke: #1e90ff"/>
     <use xlink:href="#ma4b584d94e" x="865.466182" y="78.115053" style="fill: #1e90ff; stroke: #1e90ff"/>
     <use xlink:href="#ma4b584d94e" x="874.123636" y="78.115053" style="fill: #1e90ff; stroke: #1e90ff"/>
     <use xlink:href="#ma4b584d94e" x="882.781091" y="78.115053" style="fill: #1e90ff; stroke: #1e90ff"/>
     <use xlink:href="#ma4b584d94e" x="891.438545" y="78.115053" style="fill: #1e90ff; stroke: #1e90ff"/>
     <use xlink:href="#ma4b584d94e" x="900.096" y="78.115053" style="fill: #1e90ff; stroke: #1e90ff"/>
     <use xlink:href="#ma4b584d94e" x="908.753455" y="78.115053" style="fill: #1e90ff; stroke: #1e90ff"/>
     <use xlink:href="#ma4b584d94e" x="917.410909" y="78.115053" style="fill: #1e90ff; stroke: #1e90ff"/>
     <use xlink:href="#ma4b584d94e" x="926.068364" y="78.115053" style="fill: #1e90ff; stroke: #1e90ff"/>
     <use xlink:href="#ma4b584d94e" x="934.725818" y="78.115053" style="fill: #1e90ff; stroke: #1e90ff"/>
     <use xlink:href="#ma4b584d94e" x="943.383273" y="78.115053" style="fill: #1e90ff; stroke: #1e90ff"/>
     <use xlink:href="#ma4b584d94e" x="952.040727" y="78.115053" style="fill: #1e90ff; stroke: #1e90ff"/>
     <use xlink:href="#ma4b584d94e" x="960.698182" y="78.115053" style="fill: #1e90ff; stroke: #1e90ff"/>
     <use xlink:href="#ma4b584d94e" x="969.355636" y="78.115053" style="fill: #1e90ff; stroke: #1e90ff"/>
     <use xlink:href="#ma4b584d94e" x="978.013091" y="78.115053" style="fill: #1e90ff; stroke: #1e90ff"/>
     <use xlink:href="#ma4b584d94e" x="986.670545" y="78.115053" style="fill: #1e90ff; stroke: #1e90ff"/>
     <use xlink:href="#ma4b584d94e" x="995.328" y="78.115053" style="fill: #1e90ff; stroke: #1e90ff"/>
    </g>
   </g>
   <g id="line2d_24">
    <path d="M 138.24 442.437773 
L 146.897455 436.159011 
L 155.554909 429.897554 
L 164.212364 423.745521 
L 172.869818 417.796505 
L 181.527273 412.138998 
L 190.184727 406.850025 
L 198.842182 401.989993 
L 207.499636 397.599543 
L 216.157091 393.698745 
L 224.814545 390.288443 
L 233.472 387.353226 
L 242.129455 384.865267 
L 250.786909 382.788375 
L 259.444364 381.081699 
L 268.101818 379.702796 
L 276.759273 378.609944 
L 285.416727 377.763723 
L 294.074182 377.127968 
L 302.731636 376.670243 
L 311.389091 376.361955 
L 320.046545 376.178241 
L 328.704 376.09771 
L 337.361455 376.102111 
L 346.018909 376.175978 
L 354.676364 376.306271 
L 363.333818 376.482044 
L 371.991273 376.694139 
L 380.648727 376.934919 
L 389.306182 377.198028 
L 397.963636 377.47819 
L 406.621091 377.771035 
L 415.278545 378.07295 
L 423.936 378.380957 
L 432.593455 378.692608 
L 441.250909 379.005894 
L 449.908364 379.319177 
L 458.565818 379.631123 
L 467.223273 379.940655 
L 475.880727 380.24691 
L 484.538182 380.5492 
L 493.195636 380.846985 
L 501.853091 381.139847 
L 510.510545 381.427471 
L 519.168 381.709626 
L 527.825455 381.986148 
L 536.482909 382.256935 
L 545.140364 382.521929 
L 553.797818 382.781113 
L 562.455273 383.0345 
L 571.112727 383.282131 
L 579.770182 383.524066 
L 588.427636 383.760384 
L 597.085091 383.991176 
L 605.742545 384.216542 
L 614.4 384.436593 
L 623.057455 384.651443 
L 631.714909 384.861212 
L 640.372364 385.066022 
L 649.029818 385.265998 
L 657.687273 385.461263 
L 666.344727 385.651943 
L 675.002182 385.838161 
L 683.659636 386.02004 
L 692.317091 386.1977 
L 700.974545 386.371261 
L 709.632 386.540838 
L 718.289455 386.706547 
L 726.946909 386.868498 
L 735.604364 387.0268 
L 744.261818 387.181559 
L 752.919273 387.332878 
L 761.576727 387.480856 
L 770.234182 387.625592 
L 778.891636 387.767178 
L 787.549091 387.905708 
L 796.206545 388.041268 
L 804.864 388.173944 
L 813.521455 388.303821 
L 822.178909 388.430978 
L 830.836364 388.555493 
L 839.493818 388.67744 
L 848.151273 388.796894 
L 856.808727 388.913924 
L 865.466182 389.028599 
L 874.123636 389.140984 
L 882.781091 389.251142 
L 891.438545 389.359137 
L 900.096 389.465026 
L 908.753455 389.568867 
L 917.410909 389.670717 
L 926.068364 389.770628 
L 934.725818 389.868653 
L 943.383273 389.964843 
L 952.040727 390.059246 
L 960.698182 390.151908 
L 969.355636 390.242877 
L 978.013091 390.332195 
L 986.670545 390.419905 
L 995.328 390.506049 
" clip-path="url(#p2a479e6f21)" style="fill: none; stroke: #191970; stroke-width: 1.5; stroke-linecap: square"/>
    <defs>
     <path id="mf3061fa85a" d="M 0 1.5 
C 0.397805 1.5 0.77937 1.341951 1.06066 1.06066 
C 1.341951 0.77937 1.5 0.397805 1.5 0 
C 1.5 -0.397805 1.341951 -0.77937 1.06066 -1.06066 
C 0.77937 -1.341951 0.397805 -1.5 0 -1.5 
C -0.397805 -1.5 -0.77937 -1.341951 -1.06066 -1.06066 
C -1.341951 -0.77937 -1.5 -0.397805 -1.5 0 
C -1.5 0.397805 -1.341951 0.77937 -1.06066 1.06066 
C -0.77937 1.341951 -0.397805 1.5 0 1.5 
z
" style="stroke: #191970"/>
    </defs>
    <g clip-path="url(#p2a479e6f21)">
     <use xlink:href="#mf3061fa85a" x="138.24" y="442.437773" style="fill: #191970; stroke: #191970"/>
     <use xlink:href="#mf3061fa85a" x="146.897455" y="436.159011" style="fill: #191970; stroke: #191970"/>
     <use xlink:href="#mf3061fa85a" x="155.554909" y="429.897554" style="fill: #191970; stroke: #191970"/>
     <use xlink:href="#mf3061fa85a" x="164.212364" y="423.745521" style="fill: #191970; stroke: #191970"/>
     <use xlink:href="#mf3061fa85a" x="172.869818" y="417.796505" style="fill: #191970; stroke: #191970"/>
     <use xlink:href="#mf3061fa85a" x="181.527273" y="412.138998" style="fill: #191970; stroke: #191970"/>
     <use xlink:href="#mf3061fa85a" x="190.184727" y="406.850025" style="fill: #191970; stroke: #191970"/>
     <use xlink:href="#mf3061fa85a" x="198.842182" y="401.989993" style="fill: #191970; stroke: #191970"/>
     <use xlink:href="#mf3061fa85a" x="207.499636" y="397.599543" style="fill: #191970; stroke: #191970"/>
     <use xlink:href="#mf3061fa85a" x="216.157091" y="393.698745" style="fill: #191970; stroke: #191970"/>
     <use xlink:href="#mf3061fa85a" x="224.814545" y="390.288443" style="fill: #191970; stroke: #191970"/>
     <use xlink:href="#mf3061fa85a" x="233.472" y="387.353226" style="fill: #191970; stroke: #191970"/>
     <use xlink:href="#mf3061fa85a" x="242.129455" y="384.865267" style="fill: #191970; stroke: #191970"/>
     <use xlink:href="#mf3061fa85a" x="250.786909" y="382.788375" style="fill: #191970; stroke: #191970"/>
     <use xlink:href="#mf3061fa85a" x="259.444364" y="381.081699" style="fill: #191970; stroke: #191970"/>
     <use xlink:href="#mf3061fa85a" x="268.101818" y="379.702796" style="fill: #191970; stroke: #191970"/>
     <use xlink:href="#mf3061fa85a" x="276.759273" y="378.609944" style="fill: #191970; stroke: #191970"/>
     <use xlink:href="#mf3061fa85a" x="285.416727" y="377.763723" style="fill: #191970; stroke: #191970"/>
     <use xlink:href="#mf3061fa85a" x="294.074182" y="377.127968" style="fill: #191970; stroke: #191970"/>
     <use xlink:href="#mf3061fa85a" x="302.731636" y="376.670243" style="fill: #191970; stroke: #191970"/>
     <use xlink:href="#mf3061fa85a" x="311.389091" y="376.361955" style="fill: #191970; stroke: #191970"/>
     <use xlink:href="#mf3061fa85a" x="320.046545" y="376.178241" style="fill: #191970; stroke: #191970"/>
     <use xlink:href="#mf3061fa85a" x="328.704" y="376.09771" style="fill: #191970; stroke: #191970"/>
     <use xlink:href="#mf3061fa85a" x="337.361455" y="376.102111" style="fill: #191970; stroke: #191970"/>
     <use xlink:href="#mf3061fa85a" x="346.018909" y="376.175978" style="fill: #191970; stroke: #191970"/>
     <use xlink:href="#mf3061fa85a" x="354.676364" y="376.306271" style="fill: #191970; stroke: #191970"/>
     <use xlink:href="#mf3061fa85a" x="363.333818" y="376.482044" style="fill: #191970; stroke: #191970"/>
     <use xlink:href="#mf3061fa85a" x="371.991273" y="376.694139" style="fill: #191970; stroke: #191970"/>
     <use xlink:href="#mf3061fa85a" x="380.648727" y="376.934919" style="fill: #191970; stroke: #191970"/>
     <use xlink:href="#mf3061fa85a" x="389.306182" y="377.198028" style="fill: #191970; stroke: #191970"/>
     <use xlink:href="#mf3061fa85a" x="397.963636" y="377.47819" style="fill: #191970; stroke: #191970"/>
     <use xlink:href="#mf3061fa85a" x="406.621091" y="377.771035" style="fill: #191970; stroke: #191970"/>
     <use xlink:href="#mf3061fa85a" x="415.278545" y="378.07295" style="fill: #191970; stroke: #191970"/>
     <use xlink:href="#mf3061fa85a" x="423.936" y="378.380957" style="fill: #191970; stroke: #191970"/>
     <use xlink:href="#mf3061fa85a" x="432.593455" y="378.692608" style="fill: #191970; stroke: #191970"/>
     <use xlink:href="#mf3061fa85a" x="441.250909" y="379.005894" style="fill: #191970; stroke: #191970"/>
     <use xlink:href="#mf3061fa85a" x="449.908364" y="379.319177" style="fill: #191970; stroke: #191970"/>
     <use xlink:href="#mf3061fa85a" x="458.565818" y="379.631123" style="fill: #191970; stroke: #191970"/>
     <use xlink:href="#mf3061fa85a" x="467.223273" y="379.940655" style="fill: #191970; stroke: #191970"/>
     <use xlink:href="#mf3061fa85a" x="475.880727" y="380.24691" style="fill: #191970; stroke: #191970"/>
     <use xlink:href="#mf3061fa85a" x="484.538182" y="380.5492" style="fill: #191970; stroke: #191970"/>
     <use xlink:href="#mf3061fa85a" x="493.195636" y="380.846985" style="fill: #191970; stroke: #191970"/>
     <use xlink:href="#mf3061fa85a" x="501.853091" y="381.139847" style="fill: #191970; stroke: #191970"/>
     <use xlink:href="#mf3061fa85a" x="510.510545" y="381.427471" style="fill: #191970; stroke: #191970"/>
     <use xlink:href="#mf3061fa85a" x="519.168" y="381.709626" style="fill: #191970; stroke: #191970"/>
     <use xlink:href="#mf3061fa85a" x="527.825455" y="381.986148" style="fill: #191970; stroke: #191970"/>
     <use xlink:href="#mf3061fa85a" x="536.482909" y="382.256935" style="fill: #191970; stroke: #191970"/>
     <use xlink:href="#mf3061fa85a" x="545.140364" y="382.521929" style="fill: #191970; stroke: #191970"/>
     <use xlink:href="#mf3061fa85a" x="553.797818" y="382.781113" style="fill: #191970; stroke: #191970"/>
     <use xlink:href="#mf3061fa85a" x="562.455273" y="383.0345" style="fill: #191970; stroke: #191970"/>
     <use xlink:href="#mf3061fa85a" x="571.112727" y="383.282131" style="fill: #191970; stroke: #191970"/>
     <use xlink:href="#mf3061fa85a" x="579.770182" y="383.524066" style="fill: #191970; stroke: #191970"/>
     <use xlink:href="#mf3061fa85a" x="588.427636" y="383.760384" style="fill: #191970; stroke: #191970"/>
     <use xlink:href="#mf3061fa85a" x="597.085091" y="383.991176" style="fill: #191970; stroke: #191970"/>
     <use xlink:href="#mf3061fa85a" x="605.742545" y="384.216542" style="fill: #191970; stroke: #191970"/>
     <use xlink:href="#mf3061fa85a" x="614.4" y="384.436593" style="fill: #191970; stroke: #191970"/>
     <use xlink:href="#mf3061fa85a" x="623.057455" y="384.651443" style="fill: #191970; stroke: #191970"/>
     <use xlink:href="#mf3061fa85a" x="631.714909" y="384.861212" style="fill: #191970; stroke: #191970"/>
     <use xlink:href="#mf3061fa85a" x="640.372364" y="385.066022" style="fill: #191970; stroke: #191970"/>
     <use xlink:href="#mf3061fa85a" x="649.029818" y="385.265998" style="fill: #191970; stroke: #191970"/>
     <use xlink:href="#mf3061fa85a" x="657.687273" y="385.461263" style="fill: #191970; stroke: #191970"/>
     <use xlink:href="#mf3061fa85a" x="666.344727" y="385.651943" style="fill: #191970; stroke: #191970"/>
     <use xlink:href="#mf3061fa85a" x="675.002182" y="385.838161" style="fill: #191970; stroke: #191970"/>
     <use xlink:href="#mf3061fa85a" x="683.659636" y="386.02004" style="fill: #191970; stroke: #191970"/>
     <use xlink:href="#mf3061fa85a" x="692.317091" y="386.1977" style="fill: #191970; stroke: #191970"/>
     <use xlink:href="#mf3061fa85a" x="700.974545" y="386.371261" style="fill: #191970; stroke: #191970"/>
     <use xlink:href="#mf3061fa85a" x="709.632" y="386.540838" style="fill: #191970; stroke: #191970"/>
     <use xlink:href="#mf3061fa85a" x="718.289455" y="386.706547" style="fill: #191970; stroke: #191970"/>
     <use xlink:href="#mf3061fa85a" x="726.946909" y="386.868498" style="fill: #191970; stroke: #191970"/>
     <use xlink:href="#mf3061fa85a" x="735.604364" y="387.0268" style="fill: #191970; stroke: #191970"/>
     <use xlink:href="#mf3061fa85a" x="744.261818" y="387.181559" style="fill: #191970; stroke: #191970"/>
     <use xlink:href="#mf3061fa85a" x="752.919273" y="387.332878" style="fill: #191970; stroke: #191970"/>
     <use xlink:href="#mf3061fa85a" x="761.576727" y="387.480856" style="fill: #191970; stroke: #191970"/>
     <use xlink:href="#mf3061fa85a" x="770.234182" y="387.625592" style="fill: #191970; stroke: #191970"/>
     <use xlink:href="#mf3061fa85a" x="778.891636" y="387.767178" style="fill: #191970; stroke: #191970"/>
     <use xlink:href="#mf3061fa85a" x="787.549091" y="387.905708" style="fill: #191970; stroke: #191970"/>
     <use xlink:href="#mf3061fa85a" x="796.206545" y="388.041268" style="fill: #191970; stroke: #191970"/>
     <use xlink:href="#mf3061fa85a" x="804.864" y="388.173944" style="fill: #191970; stroke: #191970"/>
     <use xlink:href="#mf3061fa85a" x="813.521455" y="388.303821" style="fill: #191970; stroke: #191970"/>
     <use xlink:href="#mf3061fa85a" x="822.178909" y="388.430978" style="fill: #191970; stroke: #191970"/>
     <use xlink:href="#mf3061fa85a" x="830.836364" y="388.555493" style="fill: #191970; stroke: #191970"/>
     <use xlink:href="#mf3061fa85a" x="839.493818" y="388.67744" style="fill: #191970; stroke: #191970"/>
     <use xlink:href="#mf3061fa85a" x="848.151273" y="388.796894" style="fill: #191970; stroke: #191970"/>
     <use xlink:href="#mf3061fa85a" x="856.808727" y="388.913924" style="fill: #191970; stroke: #191970"/>
     <use xlink:href="#mf3061fa85a" x="865.466182" y="389.028599" style="fill: #191970; stroke: #191970"/>
     <use xlink:href="#mf3061fa85a" x="874.123636" y="389.140984" style="fill: #191970; stroke: #191970"/>
     <use xlink:href="#mf3061fa85a" x="882.781091" y="389.251142" style="fill: #191970; stroke: #191970"/>
     <use xlink:href="#mf3061fa85a" x="891.438545" y="389.359137" style="fill: #191970; stroke: #191970"/>
     <use xlink:href="#mf3061fa85a" x="900.096" y="389.465026" style="fill: #191970; stroke: #191970"/>
     <use xlink:href="#mf3061fa85a" x="908.753455" y="389.568867" style="fill: #191970; stroke: #191970"/>
     <use xlink:href="#mf3061fa85a" x="917.410909" y="389.670717" style="fill: #191970; stroke: #191970"/>
     <use xlink:href="#mf3061fa85a" x="926.068364" y="389.770628" style="fill: #191970; stroke: #191970"/>
     <use xlink:href="#mf3061fa85a" x="934.725818" y="389.868653" style="fill: #191970; stroke: #191970"/>
     <use xlink:href="#mf3061fa85a" x="943.383273" y="389.964843" style="fill: #191970; stroke: #191970"/>
     <use xlink:href="#mf3061fa85a" x="952.040727" y="390.059246" style="fill: #191970; stroke: #191970"/>
     <use xlink:href="#mf3061fa85a" x="960.698182" y="390.151908" style="fill: #191970; stroke: #191970"/>
     <use xlink:href="#mf3061fa85a" x="969.355636" y="390.242877" style="fill: #191970; stroke: #191970"/>
     <use xlink:href="#mf3061fa85a" x="978.013091" y="390.332195" style="fill: #191970; stroke: #191970"/>
     <use xlink:href="#mf3061fa85a" x="986.670545" y="390.419905" style="fill: #191970; stroke: #191970"/>
     <use xlink:href="#mf3061fa85a" x="995.328" y="390.506049" style="fill: #191970; stroke: #191970"/>
    </g>
   </g>
   <g id="patch_3">
    <path d="M 138.24 483.41952 
L 138.24 65.18016 
" style="fill: none; stroke: #000000; stroke-width: 0.8; stroke-linejoin: miter; stroke-linecap: square"/>
   </g>
   <g id="patch_4">
    <path d="M 995.328 483.41952 
L 995.328 65.18016 
" style="fill: none; stroke: #000000; stroke-width: 0.8; stroke-linejoin: miter; stroke-linecap: square"/>
   </g>
   <g id="patch_5">
    <path d="M 138.24 483.41952 
L 995.328 483.41952 
" style="fill: none; stroke: #000000; stroke-width: 0.8; stroke-linejoin: miter; stroke-linecap: square"/>
   </g>
   <g id="patch_6">
    <path d="M 138.24 65.18016 
L 995.328 65.18016 
" style="fill: none; stroke: #000000; stroke-width: 0.8; stroke-linejoin: miter; stroke-linecap: square"/>
   </g>
   <g id="legend_1">
    <g id="patch_7">
     <path d="M 145.24 478.41952 
L 228.161875 478.41952 
Q 230.161875 478.41952 230.161875 476.41952 
L 230.161875 448.06327 
Q 230.161875 446.06327 228.161875 446.06327 
L 145.24 446.06327 
Q 143.24 446.06327 143.24 448.06327 
L 143.24 476.41952 
Q 143.24 478.41952 145.24 478.41952 
z
" style="fill: #ffffff; opacity: 0.8; stroke: #cccccc; stroke-linejoin: miter"/>
    </g>
    <g id="line2d_25">
     <path d="M 147.24 454.161708 
L 157.24 454.161708 
L 167.24 454.161708 
" style="fill: none; stroke: #1e90ff; stroke-width: 1.5; stroke-linecap: square"/>
     <g>
      <use xlink:href="#ma4b584d94e" x="157.24" y="454.161708" style="fill: #1e90ff; stroke: #1e90ff"/>
     </g>
    </g>
    <g id="text_14">
     <!-- sensitivity -->
     <g transform="translate(175.24 457.661708)scale(0.1 -0.1)">
      <use xlink:href="#DejaVuSans-73"/>
      <use xlink:href="#DejaVuSans-65" x="52.099609"/>
      <use xlink:href="#DejaVuSans-6e" x="113.623047"/>
      <use xlink:href="#DejaVuSans-73" x="177.001953"/>
      <use xlink:href="#DejaVuSans-69" x="229.101562"/>
      <use xlink:href="#DejaVuSans-74" x="256.884766"/>
      <use xlink:href="#DejaVuSans-69" x="296.09375"/>
      <use xlink:href="#DejaVuSans-76" x="323.876953"/>
      <use xlink:href="#DejaVuSans-69" x="383.056641"/>
      <use xlink:href="#DejaVuSans-74" x="410.839844"/>
      <use xlink:href="#DejaVuSans-79" x="450.048828"/>
     </g>
    </g>
    <g id="line2d_26">
     <path d="M 147.24 468.839832 
L 157.24 468.839832 
L 167.24 468.839832 
" style="fill: none; stroke: #191970; stroke-width: 1.5; stroke-linecap: square"/>
     <g>
      <use xlink:href="#mf3061fa85a" x="157.24" y="468.839832" style="fill: #191970; stroke: #191970"/>
     </g>
    </g>
    <g id="text_15">
     <!-- elasticity -->
     <g transform="translate(175.24 472.339832)scale(0.1 -0.1)">
      <use xlink:href="#DejaVuSans-65"/>
      <use xlink:href="#DejaVuSans-6c" x="61.523438"/>
      <use xlink:href="#DejaVuSans-61" x="89.306641"/>
      <use xlink:href="#DejaVuSans-73" x="150.585938"/>
      <use xlink:href="#DejaVuSans-74" x="202.685547"/>
      <use xlink:href="#DejaVuSans-69" x="241.894531"/>
      <use xlink:href="#DejaVuSans-63" x="269.677734"/>
      <use xlink:href="#DejaVuSans-69" x="324.658203"/>
      <use xlink:href="#DejaVuSans-74" x="352.441406"/>
      <use xlink:href="#DejaVuSans-79" x="391.650391"/>
     </g>
    </g>
   </g>
  </g>
 </g>
 <defs>
  <clipPath id="p2a479e6f21">
   <rect x="138.24" y="65.18016" width="857.088" height="418.23936"/>
  </clipPath>
 </defs>
</svg>
