<?xml version="1.0" encoding="utf-8" standalone="no"?>
<!DOCTYPE svg PUBLIC "-//W3C//DTD SVG 1.1//EN"
  "http://www.w3.org/Graphics/SVG/1.1/DTD/svg11.dtd">
<svg xmlns:xlink="http://www.w3.org/1999/xlink" width="1105.92pt" height="543.168pt" viewBox="0 0 1105.92 543.168" xmlns="http://www.w3.org/2000/svg" version="1.1">
 <metadata>
  <rdf:RDF xmlns:dc="http://purl.org/dc/elements/1.1/" xmlns:cc="http://creativecommons.org/ns#" xmlns:rdf="http://www.w3.org/1999/02/22-rdf-syntax-ns#">
   <cc:Work>
    <dc:type rdf:resource="http://purl.org/dc/dcmitype/StillImage"/>
    <dc:date>2026-03-15T17:39:43.953360</dc:date>
    <dc:format>image/svg+xml</dc:format>
    <dc:creator>
     <cc:Agent>
      <dc:title>Matplotlib v3.5.3, https://matplotlib.org/</dc:title>
     </cc:Agent>
    </dc:creator>
   </cc:Work>
  </rdf:RDF>
 </metadata>
 <defs>
  <style type="text/css">*{stroke-linejoin: round; stroke-linecap: butt}</style>
 </defs>
 <g id="figure_1">
  <g id="patch_1">
   <path d="M 0 543.168 
L 1105.92 543.168 
L 1105.92 0 
L 0 0 
z
" style="fill: #ffffff"/>
  </g>
  <g id="axes_1">
   <g id="patch_2">
    <path d="M 138.24 483.41952 
L 995.328 483.41952 
L 995.328 65.18016 
L 138.24 65.18016 
z
" style="fill: #ffffff"/>
   </g>
   <g id="matplotlib.axis_1">
    <g id="xtick_1">
     <g id="line2d_1">
      <path d="M 290.258017 483.41952 
L 290.258017 65.18016 
" clip-path="url(#p7c7b3fc5b7)" style="fill: none; stroke: #b0b0b0; stroke-width: 0.25; stroke-linecap: square"/>
     </g>
     <g id="line2d_2">
      <defs>
       <path id="m482901f2f2" d="M 0 0 
L 0 3.5 
" style="stroke: #000000; stroke-width: 0.8"/>
      </defs>
      <g>
       <use xlink:href="#m482901f2f2" x="290.258017" y="483.41952" style="stroke: #000000; stroke-width: 0.8"/>
      </g>
     </g>
     <g id="text_1">
      <!-- $\mathdefault{10^{0}}$ -->
      <g transform="translate(281.458017 498.017958)scale(0.1 -0.1)">
       <defs>
        <path id="DejaVuSans-31" d="M 794 531 
L 1825 531 
L 1825 4091 
L 703 3866 
L 703 4441 
L 1819 4666 
L 2450 4666 
L 2450 531 
L 3481 531 
L 3481 0 
L 794 0 
L 794 531 
z
" transform="scale(0.015625)"/>
        <path id="DejaVuSans-30" d="M 2034 4250 
Q 1547 4250 1301 3770 
Q 1056 3291 1056 2328 
Q 1056 1369 1301 889 
Q 1547 409 2034 409 
Q 2525 409 2770 889 
Q 3016 1369 3016 2328 
Q 3016 3291 2770 3770 
Q 2525 4250 2034 4250 
z
M 2034 4750 
Q 2819 4750 3233 4129 
Q 3647 3509 3647 2328 
Q 3647 1150 3233 529 
Q 2819 -91 2034 -91 
Q 1250 -91 836 529 
Q 422 1150 422 2328 
Q 422 3509 836 4129 
Q 1250 4750 2034 4750 
z
" transform="scale(0.015625)"/>
       </defs>
       <use xlink:href="#DejaVuSans-31" transform="translate(0 0.765625)"/>
       <use xlink:href="#DejaVuSans-30" transform="translate(63.623047 0.765625)"/>
       <use xlink:href="#DejaVuSans-30" transform="translate(128.203125 39.046875)scale(0.7)"/>
      </g>
     </g>
    </g>
    <g id="xtick_2">
     <g id="line2d_3">
      <path d="M 496.275445 483.41952 
L 496.275445 65.18016 
" clip-path="url(#p7c7b3fc5b7)" style="fill: none; stroke: #b0b0b0; stroke-width: 0.25; stroke-linecap: square"/>
     </g>
     <g id="line2d_4">
      <g>
       <use xlink:href="#m482901f2f2" x="496.275445" y="483.41952" style="stroke: #000000; stroke-width: 0.8"/>
      </g>
     </g>
     <g id="text_2">
      <!-- $\mathdefault{10^{1}}$ -->
      <g transform="translate(487.475445 498.017958)scale(0.1 -0.1)">
       <use xlink:href="#DejaVuSans-31" transform="translate(0 0.684375)"/>
       <use xlink:href="#DejaVuSans-30" transform="translate(63.623047 0.684375)"/>
       <use xlink:href="#DejaVuSans-31" transform="translate(128.203125 38.965625)scale(0.7)"/>
      </g>
     </g>
    </g>
    <g id="xtick_3">
     <g id="line2d_5">
      <path d="M 702.292874 483.41952 
L 702.292874 65.18016 
" clip-path="url(#p7c7b3fc5b7)" style="fill: none; stroke: #b0b0b0; stroke-width: 0.25; stroke-linecap: square"/>
     </g>
     <g id="line2d_6">
      <g>
       <use xlink:href="#m482901f2f2" x="702.292874" y="483.41952" style="stroke: #000000; stroke-width: 0.8"/>
      </g>
     </g>
     <g id="text_3">
      <!-- $\mathdefault{10^{2}}$ -->
      <g transform="translate(693.492874 498.017958)scale(0.1 -0.1)">
       <defs>
        <path id="DejaVuSans-32" d="M 1228 531 
L 3431 531 
L 3431 0 
L 469 0 
L 469 531 
Q 828 903 1448 1529 
Q 2069 2156 2228 2338 
Q 2531 2678 2651 2914 
Q 2772 3150 2772 3378 
Q 2772 3750 2511 3984 
Q 2250 4219 1831 4219 
Q 1534 4219 1204 4116 
Q 875 4013 500 3803 
L 500 4441 
Q 881 4594 1212 4672 
Q 1544 4750 1819 4750 
Q 2544 4750 2975 4387 
Q 3406 4025 3406 3419 
Q 3406 3131 3298 2873 
Q 3191 2616 2906 2266 
Q 2828 2175 2409 1742 
Q 1991 1309 1228 531 
z
" transform="scale(0.015625)"/>
       </defs>
       <use xlink:href="#DejaVuSans-31" transform="translate(0 0.765625)"/>
       <use xlink:href="#DejaVuSans-30" transform="translate(63.623047 0.765625)"/>
       <use xlink:href="#DejaVuSans-32" transform="translate(128.203125 39.046875)scale(0.7)"/>
      </g>
     </g>
    </g>
    <g id="xtick_4">
     <g id="line2d_7">
      <path d="M 908.310303 483.41952 
L 908.310303 65.18016 
" clip-path="url(#p7c7b3fc5b7)" style="fill: none; stroke: #b0b0b0; stroke-width: 0.25; stroke-linecap: square"/>
     </g>
     <g id="line2d_8">
      <g>
       <use xlink:href="#m482901f2f2" x="908.310303" y="483.41952" style="stroke: #000000; stroke-width: 0.8"/>
      </g>
     </g>
     <g id="text_4">
      <!-- $\mathdefault{10^{3}}$ -->
      <g transform="translate(899.510303 498.017958)scale(0.1 -0.1)">
       <defs>
        <path id="DejaVuSans-33" d="M 2597 2516 
Q 3050 2419 3304 2112 
Q 3559 1806 3559 1356 
Q 3559 666 3084 287 
Q 2609 -91 1734 -91 
Q 1441 -91 1130 -33 
Q 819 25 488 141 
L 488 750 
Q 750 597 1062 519 
Q 1375 441 1716 441 
Q 2309 441 2620 675 
Q 2931 909 2931 1356 
Q 2931 1769 2642 2001 
Q 2353 2234 1838 2234 
L 1294 2234 
L 1294 2753 
L 1863 2753 
Q 2328 2753 2575 2939 
Q 2822 3125 2822 3475 
Q 2822 3834 2567 4026 
Q 2313 4219 1838 4219 
Q 1578 4219 1281 4162 
Q 984 4106 628 3988 
L 628 4550 
Q 988 4650 1302 4700 
Q 1616 4750 1894 4750 
Q 2613 4750 3031 4423 
Q 3450 4097 3450 3541 
Q 3450 3153 3228 2886 
Q 3006 2619 2597 2516 
z
" transform="scale(0.015625)"/>
       </defs>
       <use xlink:href="#DejaVuSans-31" transform="translate(0 0.765625)"/>
       <use xlink:href="#DejaVuSans-30" transform="translate(63.623047 0.765625)"/>
       <use xlink:href="#DejaVuSans-33" transform="translate(128.203125 39.046875)scale(0.7)"/>
      </g>
     </g>
    </g>
    <g id="xtick_5">
     <g id="line2d_9">
      <defs>
       <path id="m2adfe19e0d" d="M 0 0 
L 0 2 
" style="stroke: #000000; stroke-width: 0.6"/>
      </defs>
      <g>
       <use xlink:href="#m2adfe19e0d" x="146.258014" y="483.41952" style="stroke: #000000; stroke-width: 0.6"/>
      </g>
     </g>
    </g>
    <g id="xtick_6">
     <g id="line2d_10">
      <g>
       <use xlink:href="#m2adfe19e0d" x="182.535882" y="483.41952" style="stroke: #000000; stroke-width: 0.6"/>
      </g>
     </g>
    </g>
    <g id="xtick_7">
     <g id="line2d_11">
      <g>
       <use xlink:href="#m2adfe19e0d" x="208.275439" y="483.41952" style="stroke: #000000; stroke-width: 0.6"/>
      </g>
     </g>
    </g>
    <g id="xtick_8">
     <g id="line2d_12">
      <g>
       <use xlink:href="#m2adfe19e0d" x="228.240591" y="483.41952" style="stroke: #000000; stroke-width: 0.6"/>
      </g>
     </g>
    </g>
    <g id="xtick_9">
     <g id="line2d_13">
      <g>
       <use xlink:href="#m2adfe19e0d" x="244.553308" y="483.41952" style="stroke: #000000; stroke-width: 0.6"/>
      </g>
     </g>
    </g>
    <g id="xtick_10">
     <g id="line2d_14">
      <g>
       <use xlink:href="#m2adfe19e0d" x="258.345513" y="483.41952" style="stroke: #000000; stroke-width: 0.6"/>
      </g>
     </g>
    </g>
    <g id="xtick_11">
     <g id="line2d_15">
      <g>
       <use xlink:href="#m2adfe19e0d" x="270.292865" y="483.41952" style="stroke: #000000; stroke-width: 0.6"/>
      </g>
     </g>
    </g>
    <g id="xtick_12">
     <g id="line2d_16">
      <g>
       <use xlink:href="#m2adfe19e0d" x="280.831176" y="483.41952" style="stroke: #000000; stroke-width: 0.6"/>
      </g>
     </g>
    </g>
    <g id="xtick_13">
     <g id="line2d_17">
      <g>
       <use xlink:href="#m2adfe19e0d" x="352.275442" y="483.41952" style="stroke: #000000; stroke-width: 0.6"/>
      </g>
     </g>
    </g>
    <g id="xtick_14">
     <g id="line2d_18">
      <g>
       <use xlink:href="#m2adfe19e0d" x="388.553311" y="483.41952" style="stroke: #000000; stroke-width: 0.6"/>
      </g>
     </g>
    </g>
    <g id="xtick_15">
     <g id="line2d_19">
      <g>
       <use xlink:href="#m2adfe19e0d" x="414.292868" y="483.41952" style="stroke: #000000; stroke-width: 0.6"/>
      </g>
     </g>
    </g>
    <g id="xtick_16">
     <g id="line2d_20">
      <g>
       <use xlink:href="#m2adfe19e0d" x="434.25802" y="483.41952" style="stroke: #000000; stroke-width: 0.6"/>
      </g>
     </g>
    </g>
    <g id="xtick_17">
     <g id="line2d_21">
      <g>
       <use xlink:href="#m2adfe19e0d" x="450.570737" y="483.41952" style="stroke: #000000; stroke-width: 0.6"/>
      </g>
     </g>
    </g>
    <g id="xtick_18">
     <g id="line2d_22">
      <g>
       <use xlink:href="#m2adfe19e0d" x="464.362942" y="483.41952" style="stroke: #000000; stroke-width: 0.6"/>
      </g>
     </g>
    </g>
    <g id="xtick_19">
     <g id="line2d_23">
      <g>
       <use xlink:href="#m2adfe19e0d" x="476.310294" y="483.41952" style="stroke: #000000; stroke-width: 0.6"/>
      </g>
     </g>
    </g>
    <g id="xtick_20">
     <g id="line2d_24">
      <g>
       <use xlink:href="#m2adfe19e0d" x="486.848605" y="483.41952" style="stroke: #000000; stroke-width: 0.6"/>
      </g>
     </g>
    </g>
    <g id="xtick_21">
     <g id="line2d_25">
      <g>
       <use xlink:href="#m2adfe19e0d" x="558.292871" y="483.41952" style="stroke: #000000; stroke-width: 0.6"/>
      </g>
     </g>
    </g>
    <g id="xtick_22">
     <g id="line2d_26">
      <g>
       <use xlink:href="#m2adfe19e0d" x="594.57074" y="483.41952" style="stroke: #000000; stroke-width: 0.6"/>
      </g>
     </g>
    </g>
    <g id="xtick_23">
     <g id="line2d_27">
      <g>
       <use xlink:href="#m2adfe19e0d" x="620.310297" y="483.41952" style="stroke: #000000; stroke-width: 0.6"/>
      </g>
     </g>
    </g>
    <g id="xtick_24">
     <g id="line2d_28">
      <g>
       <use xlink:href="#m2adfe19e0d" x="640.275448" y="483.41952" style="stroke: #000000; stroke-width: 0.6"/>
      </g>
     </g>
    </g>
    <g id="xtick_25">
     <g id="line2d_29">
      <g>
       <use xlink:href="#m2adfe19e0d" x="656.588165" y="483.41952" style="stroke: #000000; stroke-width: 0.6"/>
      </g>
     </g>
    </g>
    <g id="xtick_26">
     <g id="line2d_30">
      <g>
       <use xlink:href="#m2adfe19e0d" x="670.380371" y="483.41952" style="stroke: #000000; stroke-width: 0.6"/>
      </g>
     </g>
    </g>
    <g id="xtick_27">
     <g id="line2d_31">
      <g>
       <use xlink:href="#m2adfe19e0d" x="682.327722" y="483.41952" style="stroke: #000000; stroke-width: 0.6"/>
      </g>
     </g>
    </g>
    <g id="xtick_28">
     <g id="line2d_32">
      <g>
       <use xlink:href="#m2adfe19e0d" x="692.866034" y="483.41952" style="stroke: #000000; stroke-width: 0.6"/>
      </g>
     </g>
    </g>
    <g id="xtick_29">
     <g id="line2d_33">
      <g>
       <use xlink:href="#m2adfe19e0d" x="764.3103" y="483.41952" style="stroke: #000000; stroke-width: 0.6"/>
      </g>
     </g>
    </g>
    <g id="xtick_30">
     <g id="line2d_34">
      <g>
       <use xlink:href="#m2adfe19e0d" x="800.588168" y="483.41952" style="stroke: #000000; stroke-width: 0.6"/>
      </g>
     </g>
    </g>
    <g id="xtick_31">
     <g id="line2d_35">
      <g>
       <use xlink:href="#m2adfe19e0d" x="826.327725" y="483.41952" style="stroke: #000000; stroke-width: 0.6"/>
      </g>
     </g>
    </g>
    <g id="xtick_32">
     <g id="line2d_36">
      <g>
       <use xlink:href="#m2adfe19e0d" x="846.292877" y="483.41952" style="stroke: #000000; stroke-width: 0.6"/>
      </g>
     </g>
    </g>
    <g id="xtick_33">
     <g id="line2d_37">
      <g>
       <use xlink:href="#m2adfe19e0d" x="862.605594" y="483.41952" style="stroke: #000000; stroke-width: 0.6"/>
      </g>
     </g>
    </g>
    <g id="xtick_34">
     <g id="line2d_38">
      <g>
       <use xlink:href="#m2adfe19e0d" x="876.397799" y="483.41952" style="stroke: #000000; stroke-width: 0.6"/>
      </g>
     </g>
    </g>
    <g id="xtick_35">
     <g id="line2d_39">
      <g>
       <use xlink:href="#m2adfe19e0d" x="888.345151" y="483.41952" style="stroke: #000000; stroke-width: 0.6"/>
      </g>
     </g>
    </g>
    <g id="xtick_36">
     <g id="line2d_40">
      <g>
       <use xlink:href="#m2adfe19e0d" x="898.883462" y="483.41952" style="stroke: #000000; stroke-width: 0.6"/>
      </g>
     </g>
    </g>
    <g id="xtick_37">
     <g id="line2d_41">
      <g>
       <use xlink:href="#m2adfe19e0d" x="970.327728" y="483.41952" style="stroke: #000000; stroke-width: 0.6"/>
      </g>
     </g>
    </g>
    <g id="text_5">
     <!-- parameter $\kappa$ -->
     <g transform="translate(535.834 511.67577)scale(0.1 -0.1)">
      <defs>
       <path id="DejaVuSans-70" d="M 1159 525 
L 1159 -1331 
L 581 -1331 
L 581 3500 
L 1159 3500 
L 1159 2969 
Q 1341 3281 1617 3432 
Q 1894 3584 2278 3584 
Q 2916 3584 3314 3078 
Q 3713 2572 3713 1747 
Q 3713 922 3314 415 
Q 2916 -91 2278 -91 
Q 1894 -91 1617 61 
Q 1341 213 1159 525 
z
M 3116 1747 
Q 3116 2381 2855 2742 
Q 2594 3103 2138 3103 
Q 1681 3103 1420 2742 
Q 1159 2381 1159 1747 
Q 1159 1113 1420 752 
Q 1681 391 2138 391 
Q 2594 391 2855 752 
Q 3116 1113 3116 1747 
z
" transform="scale(0.015625)"/>
       <path id="DejaVuSans-61" d="M 2194 1759 
Q 1497 1759 1228 1600 
Q 959 1441 959 1056 
Q 959 750 1161 570 
Q 1363 391 1709 391 
Q 2188 391 2477 730 
Q 2766 1069 2766 1631 
L 2766 1759 
L 2194 1759 
z
M 3341 1997 
L 3341 0 
L 2766 0 
L 2766 531 
Q 2569 213 2275 61 
Q 1981 -91 1556 -91 
Q 1019 -91 701 211 
Q 384 513 384 1019 
Q 384 1609 779 1909 
Q 1175 2209 1959 2209 
L 2766 2209 
L 2766 2266 
Q 2766 2663 2505 2880 
Q 2244 3097 1772 3097 
Q 1472 3097 1187 3025 
Q 903 2953 641 2809 
L 641 3341 
Q 956 3463 1253 3523 
Q 1550 3584 1831 3584 
Q 2591 3584 2966 3190 
Q 3341 2797 3341 1997 
z
" transform="scale(0.015625)"/>
       <path id="DejaVuSans-72" d="M 2631 2963 
Q 2534 3019 2420 3045 
Q 2306 3072 2169 3072 
Q 1681 3072 1420 2755 
Q 1159 2438 1159 1844 
L 1159 0 
L 581 0 
L 581 3500 
L 1159 3500 
L 1159 2956 
Q 1341 3275 1631 3429 
Q 1922 3584 2338 3584 
Q 2397 3584 2469 3576 
Q 2541 3569 2628 3553 
L 2631 2963 
z
" transform="scale(0.015625)"/>
       <path id="DejaVuSans-6d" d="M 3328 2828 
Q 3544 3216 3844 3400 
Q 4144 3584 4550 3584 
Q 5097 3584 5394 3201 
Q 5691 2819 5691 2113 
L 5691 0 
L 5113 0 
L 5113 2094 
Q 5113 2597 4934 2840 
Q 4756 3084 4391 3084 
Q 3944 3084 3684 2787 
Q 3425 2491 3425 1978 
L 3425 0 
L 2847 0 
L 2847 2094 
Q 2847 2600 2669 2842 
Q 2491 3084 2119 3084 
Q 1678 3084 1418 2786 
Q 1159 2488 1159 1978 
L 1159 0 
L 581 0 
L 581 3500 
L 1159 3500 
L 1159 2956 
Q 1356 3278 1631 3431 
Q 1906 3584 2284 3584 
Q 2666 3584 2933 3390 
Q 3200 3197 3328 2828 
z
" transform="scale(0.015625)"/>
       <path id="DejaVuSans-65" d="M 3597 1894 
L 3597 1613 
L 953 1613 
Q 991 1019 1311 708 
Q 1631 397 2203 397 
Q 2534 397 2845 478 
Q 3156 559 3463 722 
L 3463 178 
Q 3153 47 2828 -22 
Q 2503 -91 2169 -91 
Q 1331 -91 842 396 
Q 353 884 353 1716 
Q 353 2575 817 3079 
Q 1281 3584 2069 3584 
Q 2775 3584 3186 3129 
Q 3597 2675 3597 1894 
z
M 3022 2063 
Q 3016 2534 2758 2815 
Q 2500 3097 2075 3097 
Q 1594 3097 1305 2825 
Q 1016 2553 972 2059 
L 3022 2063 
z
" transform="scale(0.015625)"/>
       <path id="DejaVuSans-74" d="M 1172 4494 
L 1172 3500 
L 2356 3500 
L 2356 3053 
L 1172 3053 
L 1172 1153 
Q 1172 725 1289 603 
Q 1406 481 1766 481 
L 2356 481 
L 2356 0 
L 1766 0 
Q 1100 0 847 248 
Q 594 497 594 1153 
L 594 3053 
L 172 3053 
L 172 3500 
L 594 3500 
L 594 4494 
L 1172 4494 
z
" transform="scale(0.015625)"/>
       <path id="DejaVuSans-20" transform="scale(0.015625)"/>
       <path id="DejaVuSans-Oblique-3ba" d="M 938 3500 
L 1531 3500 
L 1247 2047 
L 3041 3500 
L 3741 3500 
L 2106 2181 
L 3275 0 
L 2572 0 
L 1628 1806 
L 1122 1403 
L 850 0 
L 256 0 
L 938 3500 
z
" transform="scale(0.015625)"/>
      </defs>
      <use xlink:href="#DejaVuSans-70" transform="translate(0 0.78125)"/>
      <use xlink:href="#DejaVuSans-61" transform="translate(63.476562 0.78125)"/>
      <use xlink:href="#DejaVuSans-72" transform="translate(124.755859 0.78125)"/>
      <use xlink:href="#DejaVuSans-61" transform="translate(165.869141 0.78125)"/>
      <use xlink:href="#DejaVuSans-6d" transform="translate(227.148438 0.78125)"/>
      <use xlink:href="#DejaVuSans-65" transform="translate(324.560547 0.78125)"/>
      <use xlink:href="#DejaVuSans-74" transform="translate(386.083984 0.78125)"/>
      <use xlink:href="#DejaVuSans-65" transform="translate(425.292969 0.78125)"/>
      <use xlink:href="#DejaVuSans-72" transform="translate(486.816406 0.78125)"/>
      <use xlink:href="#DejaVuSans-20" transform="translate(527.929688 0.78125)"/>
      <use xlink:href="#DejaVuSans-Oblique-3ba" transform="translate(559.716797 0.78125)"/>
     </g>
    </g>
   </g>
   <g id="matplotlib.axis_2">
    <g id="ytick_1">
     <g id="line2d_42">
      <path d="M 138.24 434.523289 
L 995.328 434.523289 
" clip-path="url(#p7c7b3fc5b7)" style="fill: none; stroke: #b0b0b0; stroke-width: 0.25; stroke-linecap: square"/>
     </g>
     <g id="line2d_43">
      <defs>
       <path id="m8b58807b36" d="M 0 0 
L -3.5 0 
" style="stroke: #000000; stroke-width: 0.8"/>
      </defs>
      <g>
       <use xlink:href="#m8b58807b36" x="138.24" y="434.523289" style="stroke: #000000; stroke-width: 0.8"/>
      </g>
     </g>
     <g id="text_6">
      <!-- $\mathdefault{10^{-6}}$ -->
      <g transform="translate(107.74 438.322508)scale(0.1 -0.1)">
       <defs>
        <path id="DejaVuSans-2212" d="M 678 2272 
L 4684 2272 
L 4684 1741 
L 678 1741 
L 678 2272 
z
" transform="scale(0.015625)"/>
        <path id="DejaVuSans-36" d="M 2113 2584 
Q 1688 2584 1439 2293 
Q 1191 2003 1191 1497 
Q 1191 994 1439 701 
Q 1688 409 2113 409 
Q 2538 409 2786 701 
Q 3034 994 3034 1497 
Q 3034 2003 2786 2293 
Q 2538 2584 2113 2584 
z
M 3366 4563 
L 3366 3988 
Q 3128 4100 2886 4159 
Q 2644 4219 2406 4219 
Q 1781 4219 1451 3797 
Q 1122 3375 1075 2522 
Q 1259 2794 1537 2939 
Q 1816 3084 2150 3084 
Q 2853 3084 3261 2657 
Q 3669 2231 3669 1497 
Q 3669 778 3244 343 
Q 2819 -91 2113 -91 
Q 1303 -91 875 529 
Q 447 1150 447 2328 
Q 447 3434 972 4092 
Q 1497 4750 2381 4750 
Q 2619 4750 2861 4703 
Q 3103 4656 3366 4563 
z
" transform="scale(0.015625)"/>
       </defs>
       <use xlink:href="#DejaVuSans-31" transform="translate(0 0.765625)"/>
       <use xlink:href="#DejaVuSans-30" transform="translate(63.623047 0.765625)"/>
       <use xlink:href="#DejaVuSans-2212" transform="translate(128.203125 39.046875)scale(0.7)"/>
       <use xlink:href="#DejaVuSans-36" transform="translate(186.855469 39.046875)scale(0.7)"/>
      </g>
     </g>
    </g>
    <g id="ytick_2">
     <g id="line2d_44">
      <path d="M 138.24 351.856603 
L 995.328 351.856603 
" clip-path="url(#p7c7b3fc5b7)" style="fill: none; stroke: #b0b0b0; stroke-width: 0.25; stroke-linecap: square"/>
     </g>
     <g id="line2d_45">
      <g>
       <use xlink:href="#m8b58807b36" x="138.24" y="351.856603" style="stroke: #000000; stroke-width: 0.8"/>
      </g>
     </g>
     <g id="text_7">
      <!-- $\mathdefault{10^{-4}}$ -->
      <g transform="translate(107.74 355.655821)scale(0.1 -0.1)">
       <defs>
        <path id="DejaVuSans-34" d="M 2419 4116 
L 825 1625 
L 2419 1625 
L 2419 4116 
z
M 2253 4666 
L 3047 4666 
L 3047 1625 
L 3713 1625 
L 3713 1100 
L 3047 1100 
L 3047 0 
L 2419 0 
L 2419 1100 
L 313 1100 
L 313 1709 
L 2253 4666 
z
" transform="scale(0.015625)"/>
       </defs>
       <use xlink:href="#DejaVuSans-31" transform="translate(0 0.684375)"/>
       <use xlink:href="#DejaVuSans-30" transform="translate(63.623047 0.684375)"/>
       <use xlink:href="#DejaVuSans-2212" transform="translate(128.203125 38.965625)scale(0.7)"/>
       <use xlink:href="#DejaVuSans-34" transform="translate(186.855469 38.965625)scale(0.7)"/>
      </g>
     </g>
    </g>
    <g id="ytick_3">
     <g id="line2d_46">
      <path d="M 138.24 269.189917 
L 995.328 269.189917 
" clip-path="url(#p7c7b3fc5b7)" style="fill: none; stroke: #b0b0b0; stroke-width: 0.25; stroke-linecap: square"/>
     </g>
     <g id="line2d_47">
      <g>
       <use xlink:href="#m8b58807b36" x="138.24" y="269.189917" style="stroke: #000000; stroke-width: 0.8"/>
      </g>
     </g>
     <g id="text_8">
      <!-- $\mathdefault{10^{-2}}$ -->
      <g transform="translate(107.74 272.989135)scale(0.1 -0.1)">
       <use xlink:href="#DejaVuSans-31" transform="translate(0 0.765625)"/>
       <use xlink:href="#DejaVuSans-30" transform="translate(63.623047 0.765625)"/>
       <use xlink:href="#DejaVuSans-2212" transform="translate(128.203125 39.046875)scale(0.7)"/>
       <use xlink:href="#DejaVuSans-32" transform="translate(186.855469 39.046875)scale(0.7)"/>
      </g>
     </g>
    </g>
    <g id="ytick_4">
     <g id="line2d_48">
      <path d="M 138.24 186.52323 
L 995.328 186.52323 
" clip-path="url(#p7c7b3fc5b7)" style="fill: none; stroke: #b0b0b0; stroke-width: 0.25; stroke-linecap: square"/>
     </g>
     <g id="line2d_49">
      <g>
       <use xlink:href="#m8b58807b36" x="138.24" y="186.52323" style="stroke: #000000; stroke-width: 0.8"/>
      </g>
     </g>
     <g id="text_9">
      <!-- $\mathdefault{10^{0}}$ -->
      <g transform="translate(113.64 190.322449)scale(0.1 -0.1)">
       <use xlink:href="#DejaVuSans-31" transform="translate(0 0.765625)"/>
       <use xlink:href="#DejaVuSans-30" transform="translate(63.623047 0.765625)"/>
       <use xlink:href="#DejaVuSans-30" transform="translate(128.203125 39.046875)scale(0.7)"/>
      </g>
     </g>
    </g>
    <g id="ytick_5">
     <g id="line2d_50">
      <path d="M 138.24 103.856544 
L 995.328 103.856544 
" clip-path="url(#p7c7b3fc5b7)" style="fill: none; stroke: #b0b0b0; stroke-width: 0.25; stroke-linecap: square"/>
     </g>
     <g id="line2d_51">
      <g>
       <use xlink:href="#m8b58807b36" x="138.24" y="103.856544" style="stroke: #000000; stroke-width: 0.8"/>
      </g>
     </g>
     <g id="text_10">
      <!-- $\mathdefault{10^{2}}$ -->
      <g transform="translate(113.64 107.655763)scale(0.1 -0.1)">
       <use xlink:href="#DejaVuSans-31" transform="translate(0 0.765625)"/>
       <use xlink:href="#DejaVuSans-30" transform="translate(63.623047 0.765625)"/>
       <use xlink:href="#DejaVuSans-32" transform="translate(128.203125 39.046875)scale(0.7)"/>
      </g>
     </g>
    </g>
    <g id="text_11">
     <!-- sensitivity $\mathcal{S}\,(\mu)$ -->
     <g transform="translate(90.42 312.44984)rotate(-90)scale(0.1 -0.1)">
      <defs>
       <path id="DejaVuSans-73" d="M 2834 3397 
L 2834 2853 
Q 2591 2978 2328 3040 
Q 2066 3103 1784 3103 
Q 1356 3103 1142 2972 
Q 928 2841 928 2578 
Q 928 2378 1081 2264 
Q 1234 2150 1697 2047 
L 1894 2003 
Q 2506 1872 2764 1633 
Q 3022 1394 3022 966 
Q 3022 478 2636 193 
Q 2250 -91 1575 -91 
Q 1294 -91 989 -36 
Q 684 19 347 128 
L 347 722 
Q 666 556 975 473 
Q 1284 391 1588 391 
Q 1994 391 2212 530 
Q 2431 669 2431 922 
Q 2431 1156 2273 1281 
Q 2116 1406 1581 1522 
L 1381 1569 
Q 847 1681 609 1914 
Q 372 2147 372 2553 
Q 372 3047 722 3315 
Q 1072 3584 1716 3584 
Q 2034 3584 2315 3537 
Q 2597 3491 2834 3397 
z
" transform="scale(0.015625)"/>
       <path id="DejaVuSans-6e" d="M 3513 2113 
L 3513 0 
L 2938 0 
L 2938 2094 
Q 2938 2591 2744 2837 
Q 2550 3084 2163 3084 
Q 1697 3084 1428 2787 
Q 1159 2491 1159 1978 
L 1159 0 
L 581 0 
L 581 3500 
L 1159 3500 
L 1159 2956 
Q 1366 3272 1645 3428 
Q 1925 3584 2291 3584 
Q 2894 3584 3203 3211 
Q 3513 2838 3513 2113 
z
" transform="scale(0.015625)"/>
       <path id="DejaVuSans-69" d="M 603 3500 
L 1178 3500 
L 1178 0 
L 603 0 
L 603 3500 
z
M 603 4863 
L 1178 4863 
L 1178 4134 
L 603 4134 
L 603 4863 
z
" transform="scale(0.015625)"/>
       <path id="DejaVuSans-76" d="M 191 3500 
L 800 3500 
L 1894 563 
L 2988 3500 
L 3597 3500 
L 2284 0 
L 1503 0 
L 191 3500 
z
" transform="scale(0.015625)"/>
       <path id="DejaVuSans-79" d="M 2059 -325 
Q 1816 -950 1584 -1140 
Q 1353 -1331 966 -1331 
L 506 -1331 
L 506 -850 
L 844 -850 
Q 1081 -850 1212 -737 
Q 1344 -625 1503 -206 
L 1606 56 
L 191 3500 
L 800 3500 
L 1894 763 
L 2988 3500 
L 3597 3500 
L 2059 -325 
z
" transform="scale(0.015625)"/>
       <path id="STIXNonUnicode-Italic-e23f" d="M 243 1235 
L 410 1254 
Q 518 582 1139 365 
Q 1421 262 1766 262 
Q 2304 262 2685 515 
Q 3066 768 3066 1235 
Q 3066 1427 2883 1571 
Q 2701 1715 2445 1817 
Q 2189 1920 1929 2045 
Q 1670 2170 1488 2403 
Q 1306 2637 1306 2970 
Q 1306 3290 1507 3555 
Q 1709 3821 2000 3974 
Q 2291 4128 2572 4211 
Q 2854 4294 3059 4294 
Q 3603 4294 3948 4134 
Q 4294 3974 4294 3642 
Q 4294 3462 4182 3299 
Q 4070 3136 3853 3136 
Q 3712 3136 3603 3232 
Q 3494 3328 3494 3456 
Q 3494 3603 3590 3708 
Q 3686 3814 3686 3840 
Q 3686 3917 3628 3965 
Q 3571 4013 3456 4032 
Q 3341 4051 3264 4054 
Q 3187 4058 3059 4058 
Q 2931 4058 2745 4010 
Q 2560 3962 2352 3866 
Q 2144 3770 2000 3581 
Q 1856 3392 1856 3155 
Q 1856 2931 2057 2771 
Q 2259 2611 2550 2502 
Q 2842 2394 3133 2269 
Q 3424 2144 3625 1920 
Q 3827 1696 3827 1376 
Q 3827 902 3206 451 
Q 2586 0 1805 0 
Q 992 0 617 339 
Q 243 678 243 1235 
z
" transform="scale(0.015625)"/>
       <path id="DejaVuSans-28" d="M 1984 4856 
Q 1566 4138 1362 3434 
Q 1159 2731 1159 2009 
Q 1159 1288 1364 580 
Q 1569 -128 1984 -844 
L 1484 -844 
Q 1016 -109 783 600 
Q 550 1309 550 2009 
Q 550 2706 781 3412 
Q 1013 4119 1484 4856 
L 1984 4856 
z
" transform="scale(0.015625)"/>
       <path id="DejaVuSans-Oblique-3bc" d="M -84 -1331 
L 856 3500 
L 1434 3500 
L 1009 1322 
Q 997 1256 987 1175 
Q 978 1094 978 1013 
Q 978 722 1161 565 
Q 1344 409 1684 409 
Q 2147 409 2431 671 
Q 2716 934 2816 1459 
L 3213 3500 
L 3788 3500 
L 3266 809 
Q 3253 750 3248 706 
Q 3244 663 3244 628 
Q 3244 531 3283 486 
Q 3322 441 3406 441 
Q 3438 441 3492 456 
Q 3547 472 3647 513 
L 3559 50 
Q 3422 -19 3297 -55 
Q 3172 -91 3053 -91 
Q 2847 -91 2730 40 
Q 2613 172 2613 403 
Q 2438 153 2195 31 
Q 1953 -91 1625 -91 
Q 1334 -91 1117 43 
Q 900 178 831 397 
L 494 -1331 
L -84 -1331 
z
" transform="scale(0.015625)"/>
       <path id="DejaVuSans-29" d="M 513 4856 
L 1013 4856 
Q 1481 4119 1714 3412 
Q 1947 2706 1947 2009 
Q 1947 1309 1714 600 
Q 1481 -109 1013 -844 
L 513 -844 
Q 928 -128 1133 580 
Q 1338 1288 1338 2009 
Q 1338 2731 1133 3434 
Q 928 4138 513 4856 
z
" transform="scale(0.015625)"/>
      </defs>
      <use xlink:href="#DejaVuSans-73" transform="translate(0 0.015625)"/>
      <use xlink:href="#DejaVuSans-65" transform="translate(52.099609 0.015625)"/>
      <use xlink:href="#DejaVuSans-6e" transform="translate(113.623047 0.015625)"/>
      <use xlink:href="#DejaVuSans-73" transform="translate(177.001953 0.015625)"/>
      <use xlink:href="#DejaVuSans-69" transform="translate(229.101562 0.015625)"/>
      <use xlink:href="#DejaVuSans-74" transform="translate(256.884766 0.015625)"/>
      <use xlink:href="#DejaVuSans-69" transform="translate(296.09375 0.015625)"/>
      <use xlink:href="#DejaVuSans-76" transform="translate(323.876953 0.015625)"/>
      <use xlink:href="#DejaVuSans-69" transform="translate(383.056641 0.015625)"/>
      <use xlink:href="#DejaVuSans-74" transform="translate(410.839844 0.015625)"/>
      <use xlink:href="#DejaVuSans-79" transform="translate(450.048828 0.015625)"/>
      <use xlink:href="#DejaVuSans-20" transform="translate(509.228516 0.015625)"/>
      <use xlink:href="#STIXNonUnicode-Italic-e23f" transform="translate(541.015625 0.015625)"/>
      <use xlink:href="#DejaVuSans-28" transform="translate(620.651295 0.015625)"/>
      <use xlink:href="#DejaVuSans-Oblique-3bc" transform="translate(659.664967 0.015625)"/>
      <use xlink:href="#DejaVuSans-29" transform="translate(723.288014 0.015625)"/>
     </g>
     <!-- elasticity $\mathcal{E}\,(\mu)$ -->
     <g transform="translate(101.64 309.09984)rotate(-90)scale(0.1 -0.1)">
      <defs>
       <path id="DejaVuSans-6c" d="M 603 4863 
L 1178 4863 
L 1178 0 
L 603 0 
L 603 4863 
z
" transform="scale(0.015625)"/>
       <path id="DejaVuSans-63" d="M 3122 3366 
L 3122 2828 
Q 2878 2963 2633 3030 
Q 2388 3097 2138 3097 
Q 1578 3097 1268 2742 
Q 959 2388 959 1747 
Q 959 1106 1268 751 
Q 1578 397 2138 397 
Q 2388 397 2633 464 
Q 2878 531 3122 666 
L 3122 134 
Q 2881 22 2623 -34 
Q 2366 -91 2075 -91 
Q 1284 -91 818 406 
Q 353 903 353 1747 
Q 353 2603 823 3093 
Q 1294 3584 2113 3584 
Q 2378 3584 2631 3529 
Q 2884 3475 3122 3366 
z
" transform="scale(0.015625)"/>
       <path id="STIXNonUnicode-Italic-e231" d="M 3270 973 
L 3373 858 
Q 2893 346 2272 128 
Q 1856 -26 1331 -26 
Q 896 -26 576 169 
Q 256 365 256 736 
Q 256 1267 659 1651 
Q 1062 2035 1619 2259 
Q 1485 2323 1414 2368 
Q 1344 2413 1257 2493 
Q 1171 2573 1132 2688 
Q 1094 2803 1094 2963 
Q 1094 3309 1401 3629 
Q 1709 3949 2112 4118 
Q 2515 4288 2848 4288 
Q 3296 4288 3565 4128 
Q 3834 3968 3834 3654 
Q 3834 3514 3718 3338 
Q 3603 3162 3373 3162 
Q 3238 3162 3132 3251 
Q 3027 3341 3027 3475 
Q 3027 3622 3123 3731 
Q 3219 3840 3219 3859 
Q 3219 3981 3148 4029 
Q 3078 4077 2918 4077 
Q 2432 4077 2038 3792 
Q 1645 3507 1645 3155 
Q 1645 2893 1881 2742 
Q 2118 2592 2502 2592 
L 2938 2592 
L 2880 2349 
Q 2605 2349 2275 2243 
Q 1946 2138 1645 1958 
Q 1344 1779 1142 1494 
Q 941 1210 941 896 
Q 941 614 1155 467 
Q 1370 320 1741 320 
Q 2131 320 2576 515 
Q 3021 710 3270 973 
z
" transform="scale(0.015625)"/>
      </defs>
      <use xlink:href="#DejaVuSans-65" transform="translate(0 0.015625)"/>
      <use xlink:href="#DejaVuSans-6c" transform="translate(61.523438 0.015625)"/>
      <use xlink:href="#DejaVuSans-61" transform="translate(89.306641 0.015625)"/>
      <use xlink:href="#DejaVuSans-73" transform="translate(150.585938 0.015625)"/>
      <use xlink:href="#DejaVuSans-74" transform="translate(202.685547 0.015625)"/>
      <use xlink:href="#DejaVuSans-69" transform="translate(241.894531 0.015625)"/>
      <use xlink:href="#DejaVuSans-63" transform="translate(269.677734 0.015625)"/>
      <use xlink:href="#DejaVuSans-69" transform="translate(324.658203 0.015625)"/>
      <use xlink:href="#DejaVuSans-74" transform="translate(352.441406 0.015625)"/>
      <use xlink:href="#DejaVuSans-79" transform="translate(391.650391 0.015625)"/>
      <use xlink:href="#DejaVuSans-20" transform="translate(450.830078 0.015625)"/>
      <use xlink:href="#STIXNonUnicode-Italic-e231" transform="translate(482.617188 0.015625)"/>
      <use xlink:href="#DejaVuSans-28" transform="translate(554.152852 0.015625)"/>
      <use xlink:href="#DejaVuSans-Oblique-3bc" transform="translate(593.166523 0.015625)"/>
      <use xlink:href="#DejaVuSans-29" transform="translate(656.78957 0.015625)"/>
     </g>
    </g>
   </g>
   <g id="line2d_52">
    <path d="M 138.24 120.492957 
L 173.959495 134.825784 
L 201.235857 145.770715 
L 223.640091 154.760653 
L 242.877059 162.479691 
L 259.89473 169.308212 
L 275.27493 175.479681 
L 289.400523 181.147726 
L 302.536866 186.418823 
L 314.875421 191.3698 
L 326.558843 196.057897 
L 337.696236 200.526895 
L 348.372887 204.811015 
L 358.656697 208.937503 
L 368.602581 212.928395 
L 378.25556 216.801755 
L 387.652976 220.572568 
L 396.826125 224.253392 
L 405.801478 227.854848 
L 414.601604 231.385992 
L 423.245883 234.854601 
L 431.751068 238.267397 
L 440.131722 241.630224 
L 448.400572 244.948188 
L 456.568792 248.225773 
L 464.646235 251.466933 
L 472.641621 254.675167 
L 480.562696 257.853583 
L 488.416365 261.004951 
L 496.208797 264.131747 
L 503.945519 267.236189 
L 511.631497 270.32027 
L 519.271204 273.385783 
L 526.86867 276.434348 
L 534.427542 279.467425 
L 541.95112 282.486341 
L 549.442395 285.492295 
L 556.904085 288.486377 
L 564.338661 291.46958 
L 571.748371 294.442805 
L 579.135266 297.406876 
L 586.501217 300.362542 
L 593.84793 303.310488 
L 601.176967 306.251342 
L 608.489756 309.185677 
L 615.787604 312.114016 
L 623.071708 315.03684 
L 630.343166 317.954591 
L 637.602985 320.86767 
L 644.852088 323.77645 
L 652.091324 326.68127 
L 659.32147 329.582443 
L 666.543243 332.480257 
L 673.757302 335.374974 
L 680.964249 338.266839 
L 688.164643 341.156074 
L 695.358996 344.042884 
L 702.547777 346.927459 
L 709.731423 349.809973 
L 716.910331 352.690587 
L 724.08487 355.569447 
L 731.25538 358.44669 
L 738.422171 361.322442 
L 745.585533 364.196817 
L 752.745731 367.069923 
L 759.903009 369.941857 
L 767.057593 372.812709 
L 774.209691 375.682565 
L 781.359494 378.551499 
L 788.507179 381.419584 
L 795.65291 384.286885 
L 802.796837 387.153461 
L 809.939099 390.01937 
L 817.079824 392.884662 
L 824.21913 395.749384 
L 831.357126 398.613581 
L 838.493913 401.477293 
L 845.629584 404.340557 
L 852.764224 407.203408 
L 859.897913 410.065876 
L 867.030724 412.927992 
L 874.162723 415.789783 
L 881.293974 418.651273 
L 888.424534 421.512486 
L 895.554455 424.373443 
L 902.683787 427.234163 
L 909.812575 430.094665 
L 916.94086 432.954966 
L 924.068681 435.81508 
L 931.196074 438.675022 
L 938.323071 441.534806 
L 945.449703 444.394443 
L 952.575998 447.253944 
L 959.701982 450.113321 
L 966.827677 452.972582 
L 973.953107 455.831737 
L 981.078292 458.690793 
L 988.203251 461.549758 
L 995.328 464.40864 
" clip-path="url(#p7c7b3fc5b7)" style="fill: none; stroke: #4a98c9; stroke-width: 1.5; stroke-linecap: square"/>
    <defs>
     <path id="m5c5d446039" d="M 0 1.5 
C 0.397805 1.5 0.77937 1.341951 1.06066 1.06066 
C 1.341951 0.77937 1.5 0.397805 1.5 0 
C 1.5 -0.397805 1.341951 -0.77937 1.06066 -1.06066 
C 0.77937 -1.341951 0.397805 -1.5 0 -1.5 
C -0.397805 -1.5 -0.77937 -1.341951 -1.06066 -1.06066 
C -1.341951 -0.77937 -1.5 -0.397805 -1.5 0 
C -1.5 0.397805 -1.341951 0.77937 -1.06066 1.06066 
C -0.77937 1.341951 -0.397805 1.5 0 1.5 
z
" style="stroke: #4a98c9"/>
    </defs>
    <g clip-path="url(#p7c7b3fc5b7)">
     <use xlink:href="#m5c5d446039" x="138.24" y="120.492957" style="fill: #4a98c9; stroke: #4a98c9"/>
     <use xlink:href="#m5c5d446039" x="173.959495" y="134.825784" style="fill: #4a98c9; stroke: #4a98c9"/>
     <use xlink:href="#m5c5d446039" x="201.235857" y="145.770715" style="fill: #4a98c9; stroke: #4a98c9"/>
     <use xlink:href="#m5c5d446039" x="223.640091" y="154.760653" style="fill: #4a98c9; stroke: #4a98c9"/>
     <use xlink:href="#m5c5d446039" x="242.877059" y="162.479691" style="fill: #4a98c9; stroke: #4a98c9"/>
     <use xlink:href="#m5c5d446039" x="259.89473" y="169.308212" style="fill: #4a98c9; stroke: #4a98c9"/>
     <use xlink:href="#m5c5d446039" x="275.27493" y="175.479681" style="fill: #4a98c9; stroke: #4a98c9"/>
     <use xlink:href="#m5c5d446039" x="289.400523" y="181.147726" style="fill: #4a98c9; stroke: #4a98c9"/>
     <use xlink:href="#m5c5d446039" x="302.536866" y="186.418823" style="fill: #4a98c9; stroke: #4a98c9"/>
     <use xlink:href="#m5c5d446039" x="314.875421" y="191.3698" style="fill: #4a98c9; stroke: #4a98c9"/>
     <use xlink:href="#m5c5d446039" x="326.558843" y="196.057897" style="fill: #4a98c9; stroke: #4a98c9"/>
     <use xlink:href="#m5c5d446039" x="337.696236" y="200.526895" style="fill: #4a98c9; stroke: #4a98c9"/>
     <use xlink:href="#m5c5d446039" x="348.372887" y="204.811015" style="fill: #4a98c9; stroke: #4a98c9"/>
     <use xlink:href="#m5c5d446039" x="358.656697" y="208.937503" style="fill: #4a98c9; stroke: #4a98c9"/>
     <use xlink:href="#m5c5d446039" x="368.602581" y="212.928395" style="fill: #4a98c9; stroke: #4a98c9"/>
     <use xlink:href="#m5c5d446039" x="378.25556" y="216.801755" style="fill: #4a98c9; stroke: #4a98c9"/>
     <use xlink:href="#m5c5d446039" x="387.652976" y="220.572568" style="fill: #4a98c9; stroke: #4a98c9"/>
     <use xlink:href="#m5c5d446039" x="396.826125" y="224.253392" style="fill: #4a98c9; stroke: #4a98c9"/>
     <use xlink:href="#m5c5d446039" x="405.801478" y="227.854848" style="fill: #4a98c9; stroke: #4a98c9"/>
     <use xlink:href="#m5c5d446039" x="414.601604" y="231.385992" style="fill: #4a98c9; stroke: #4a98c9"/>
     <use xlink:href="#m5c5d446039" x="423.245883" y="234.854601" style="fill: #4a98c9; stroke: #4a98c9"/>
     <use xlink:href="#m5c5d446039" x="431.751068" y="238.267397" style="fill: #4a98c9; stroke: #4a98c9"/>
     <use xlink:href="#m5c5d446039" x="440.131722" y="241.630224" style="fill: #4a98c9; stroke: #4a98c9"/>
     <use xlink:href="#m5c5d446039" x="448.400572" y="244.948188" style="fill: #4a98c9; stroke: #4a98c9"/>
     <use xlink:href="#m5c5d446039" x="456.568792" y="248.225773" style="fill: #4a98c9; stroke: #4a98c9"/>
     <use xlink:href="#m5c5d446039" x="464.646235" y="251.466933" style="fill: #4a98c9; stroke: #4a98c9"/>
     <use xlink:href="#m5c5d446039" x="472.641621" y="254.675167" style="fill: #4a98c9; stroke: #4a98c9"/>
     <use xlink:href="#m5c5d446039" x="480.562696" y="257.853583" style="fill: #4a98c9; stroke: #4a98c9"/>
     <use xlink:href="#m5c5d446039" x="488.416365" y="261.004951" style="fill: #4a98c9; stroke: #4a98c9"/>
     <use xlink:href="#m5c5d446039" x="496.208797" y="264.131747" style="fill: #4a98c9; stroke: #4a98c9"/>
     <use xlink:href="#m5c5d446039" x="503.945519" y="267.236189" style="fill: #4a98c9; stroke: #4a98c9"/>
     <use xlink:href="#m5c5d446039" x="511.631497" y="270.32027" style="fill: #4a98c9; stroke: #4a98c9"/>
     <use xlink:href="#m5c5d446039" x="519.271204" y="273.385783" style="fill: #4a98c9; stroke: #4a98c9"/>
     <use xlink:href="#m5c5d446039" x="526.86867" y="276.434348" style="fill: #4a98c9; stroke: #4a98c9"/>
     <use xlink:href="#m5c5d446039" x="534.427542" y="279.467425" style="fill: #4a98c9; stroke: #4a98c9"/>
     <use xlink:href="#m5c5d446039" x="541.95112" y="282.486341" style="fill: #4a98c9; stroke: #4a98c9"/>
     <use xlink:href="#m5c5d446039" x="549.442395" y="285.492295" style="fill: #4a98c9; stroke: #4a98c9"/>
     <use xlink:href="#m5c5d446039" x="556.904085" y="288.486377" style="fill: #4a98c9; stroke: #4a98c9"/>
     <use xlink:href="#m5c5d446039" x="564.338661" y="291.46958" style="fill: #4a98c9; stroke: #4a98c9"/>
     <use xlink:href="#m5c5d446039" x="571.748371" y="294.442805" style="fill: #4a98c9; stroke: #4a98c9"/>
     <use xlink:href="#m5c5d446039" x="579.135266" y="297.406876" style="fill: #4a98c9; stroke: #4a98c9"/>
     <use xlink:href="#m5c5d446039" x="586.501217" y="300.362542" style="fill: #4a98c9; stroke: #4a98c9"/>
     <use xlink:href="#m5c5d446039" x="593.84793" y="303.310488" style="fill: #4a98c9; stroke: #4a98c9"/>
     <use xlink:href="#m5c5d446039" x="601.176967" y="306.251342" style="fill: #4a98c9; stroke: #4a98c9"/>
     <use xlink:href="#m5c5d446039" x="608.489756" y="309.185677" style="fill: #4a98c9; stroke: #4a98c9"/>
     <use xlink:href="#m5c5d446039" x="615.787604" y="312.114016" style="fill: #4a98c9; stroke: #4a98c9"/>
     <use xlink:href="#m5c5d446039" x="623.071708" y="315.03684" style="fill: #4a98c9; stroke: #4a98c9"/>
     <use xlink:href="#m5c5d446039" x="630.343166" y="317.954591" style="fill: #4a98c9; stroke: #4a98c9"/>
     <use xlink:href="#m5c5d446039" x="637.602985" y="320.86767" style="fill: #4a98c9; stroke: #4a98c9"/>
     <use xlink:href="#m5c5d446039" x="644.852088" y="323.77645" style="fill: #4a98c9; stroke: #4a98c9"/>
     <use xlink:href="#m5c5d446039" x="652.091324" y="326.68127" style="fill: #4a98c9; stroke: #4a98c9"/>
     <use xlink:href="#m5c5d446039" x="659.32147" y="329.582443" style="fill: #4a98c9; stroke: #4a98c9"/>
     <use xlink:href="#m5c5d446039" x="666.543243" y="332.480257" style="fill: #4a98c9; stroke: #4a98c9"/>
     <use xlink:href="#m5c5d446039" x="673.757302" y="335.374974" style="fill: #4a98c9; stroke: #4a98c9"/>
     <use xlink:href="#m5c5d446039" x="680.964249" y="338.266839" style="fill: #4a98c9; stroke: #4a98c9"/>
     <use xlink:href="#m5c5d446039" x="688.164643" y="341.156074" style="fill: #4a98c9; stroke: #4a98c9"/>
     <use xlink:href="#m5c5d446039" x="695.358996" y="344.042884" style="fill: #4a98c9; stroke: #4a98c9"/>
     <use xlink:href="#m5c5d446039" x="702.547777" y="346.927459" style="fill: #4a98c9; stroke: #4a98c9"/>
     <use xlink:href="#m5c5d446039" x="709.731423" y="349.809973" style="fill: #4a98c9; stroke: #4a98c9"/>
     <use xlink:href="#m5c5d446039" x="716.910331" y="352.690587" style="fill: #4a98c9; stroke: #4a98c9"/>
     <use xlink:href="#m5c5d446039" x="724.08487" y="355.569447" style="fill: #4a98c9; stroke: #4a98c9"/>
     <use xlink:href="#m5c5d446039" x="731.25538" y="358.44669" style="fill: #4a98c9; stroke: #4a98c9"/>
     <use xlink:href="#m5c5d446039" x="738.422171" y="361.322442" style="fill: #4a98c9; stroke: #4a98c9"/>
     <use xlink:href="#m5c5d446039" x="745.585533" y="364.196817" style="fill: #4a98c9; stroke: #4a98c9"/>
     <use xlink:href="#m5c5d446039" x="752.745731" y="367.069923" style="fill: #4a98c9; stroke: #4a98c9"/>
     <use xlink:href="#m5c5d446039" x="759.903009" y="369.941857" style="fill: #4a98c9; stroke: #4a98c9"/>
     <use xlink:href="#m5c5d446039" x="767.057593" y="372.812709" style="fill: #4a98c9; stroke: #4a98c9"/>
     <use xlink:href="#m5c5d446039" x="774.209691" y="375.682565" style="fill: #4a98c9; stroke: #4a98c9"/>
     <use xlink:href="#m5c5d446039" x="781.359494" y="378.551499" style="fill: #4a98c9; stroke: #4a98c9"/>
     <use xlink:href="#m5c5d446039" x="788.507179" y="381.419584" style="fill: #4a98c9; stroke: #4a98c9"/>
     <use xlink:href="#m5c5d446039" x="795.65291" y="384.286885" style="fill: #4a98c9; stroke: #4a98c9"/>
     <use xlink:href="#m5c5d446039" x="802.796837" y="387.153461" style="fill: #4a98c9; stroke: #4a98c9"/>
     <use xlink:href="#m5c5d446039" x="809.939099" y="390.01937" style="fill: #4a98c9; stroke: #4a98c9"/>
     <use xlink:href="#m5c5d446039" x="817.079824" y="392.884662" style="fill: #4a98c9; stroke: #4a98c9"/>
     <use xlink:href="#m5c5d446039" x="824.21913" y="395.749384" style="fill: #4a98c9; stroke: #4a98c9"/>
     <use xlink:href="#m5c5d446039" x="831.357126" y="398.613581" style="fill: #4a98c9; stroke: #4a98c9"/>
     <use xlink:href="#m5c5d446039" x="838.493913" y="401.477293" style="fill: #4a98c9; stroke: #4a98c9"/>
     <use xlink:href="#m5c5d446039" x="845.629584" y="404.340557" style="fill: #4a98c9; stroke: #4a98c9"/>
     <use xlink:href="#m5c5d446039" x="852.764224" y="407.203408" style="fill: #4a98c9; stroke: #4a98c9"/>
     <use xlink:href="#m5c5d446039" x="859.897913" y="410.065876" style="fill: #4a98c9; stroke: #4a98c9"/>
     <use xlink:href="#m5c5d446039" x="867.030724" y="412.927992" style="fill: #4a98c9; stroke: #4a98c9"/>
     <use xlink:href="#m5c5d446039" x="874.162723" y="415.789783" style="fill: #4a98c9; stroke: #4a98c9"/>
     <use xlink:href="#m5c5d446039" x="881.293974" y="418.651273" style="fill: #4a98c9; stroke: #4a98c9"/>
     <use xlink:href="#m5c5d446039" x="888.424534" y="421.512486" style="fill: #4a98c9; stroke: #4a98c9"/>
     <use xlink:href="#m5c5d446039" x="895.554455" y="424.373443" style="fill: #4a98c9; stroke: #4a98c9"/>
     <use xlink:href="#m5c5d446039" x="902.683787" y="427.234163" style="fill: #4a98c9; stroke: #4a98c9"/>
     <use xlink:href="#m5c5d446039" x="909.812575" y="430.094665" style="fill: #4a98c9; stroke: #4a98c9"/>
     <use xlink:href="#m5c5d446039" x="916.94086" y="432.954966" style="fill: #4a98c9; stroke: #4a98c9"/>
     <use xlink:href="#m5c5d446039" x="924.068681" y="435.81508" style="fill: #4a98c9; stroke: #4a98c9"/>
     <use xlink:href="#m5c5d446039" x="931.196074" y="438.675022" style="fill: #4a98c9; stroke: #4a98c9"/>
     <use xlink:href="#m5c5d446039" x="938.323071" y="441.534806" style="fill: #4a98c9; stroke: #4a98c9"/>
     <use xlink:href="#m5c5d446039" x="945.449703" y="444.394443" style="fill: #4a98c9; stroke: #4a98c9"/>
     <use xlink:href="#m5c5d446039" x="952.575998" y="447.253944" style="fill: #4a98c9; stroke: #4a98c9"/>
     <use xlink:href="#m5c5d446039" x="959.701982" y="450.113321" style="fill: #4a98c9; stroke: #4a98c9"/>
     <use xlink:href="#m5c5d446039" x="966.827677" y="452.972582" style="fill: #4a98c9; stroke: #4a98c9"/>
     <use xlink:href="#m5c5d446039" x="973.953107" y="455.831737" style="fill: #4a98c9; stroke: #4a98c9"/>
     <use xlink:href="#m5c5d446039" x="981.078292" y="458.690793" style="fill: #4a98c9; stroke: #4a98c9"/>
     <use xlink:href="#m5c5d446039" x="988.203251" y="461.549758" style="fill: #4a98c9; stroke: #4a98c9"/>
     <use xlink:href="#m5c5d446039" x="995.328" y="464.40864" style="fill: #4a98c9; stroke: #4a98c9"/>
    </g>
   </g>
   <g id="line2d_53">
    <path d="M 138.24 84.19104 
L 173.959495 98.523867 
L 201.235857 109.468798 
L 223.640091 118.458736 
L 242.877059 126.177774 
L 259.89473 133.006295 
L 275.27493 139.177764 
L 289.400523 144.845809 
L 302.536866 150.116906 
L 314.875421 155.067883 
L 326.558843 159.75598 
L 337.696236 164.224978 
L 348.372887 168.509098 
L 358.656697 172.635586 
L 368.602581 176.626478 
L 378.25556 180.499838 
L 387.652976 184.270651 
L 396.826125 187.951475 
L 405.801478 191.552931 
L 414.601604 195.084075 
L 423.245883 198.552684 
L 431.751068 201.96548 
L 440.131722 205.328307 
L 448.400572 208.646271 
L 456.568792 211.923856 
L 464.646235 215.165016 
L 472.641621 218.37325 
L 480.562696 221.551666 
L 488.416365 224.703034 
L 496.208797 227.82983 
L 503.945519 230.934272 
L 511.631497 234.018353 
L 519.271204 237.083866 
L 526.86867 240.132431 
L 534.427542 243.165508 
L 541.95112 246.184424 
L 549.442395 249.190378 
L 556.904085 252.18446 
L 564.338661 255.167663 
L 571.748371 258.140888 
L 579.135266 261.104959 
L 586.501217 264.060625 
L 593.84793 267.008571 
L 601.176967 269.949425 
L 608.489756 272.88376 
L 615.787604 275.812099 
L 623.071708 278.734923 
L 630.343166 281.652674 
L 637.602985 284.565753 
L 644.852088 287.474533 
L 652.091324 290.379353 
L 659.32147 293.280526 
L 666.543243 296.17834 
L 673.757302 299.073057 
L 680.964249 301.964922 
L 688.164643 304.854157 
L 695.358996 307.740967 
L 702.547777 310.625542 
L 709.731423 313.508056 
L 716.910331 316.38867 
L 724.08487 319.26753 
L 731.25538 322.144773 
L 738.422171 325.020525 
L 745.585533 327.8949 
L 752.745731 330.768006 
L 759.903009 333.63994 
L 767.057593 336.510792 
L 774.209691 339.380648 
L 781.359494 342.249582 
L 788.507179 345.117667 
L 795.65291 347.984968 
L 802.796837 350.851544 
L 809.939099 353.717453 
L 817.079824 356.582745 
L 824.21913 359.447467 
L 831.357126 362.311664 
L 838.493913 365.175376 
L 845.629584 368.03864 
L 852.764224 370.901491 
L 859.897913 373.763959 
L 867.030724 376.626075 
L 874.162723 379.487866 
L 881.293974 382.349356 
L 888.424534 385.210569 
L 895.554455 388.071526 
L 902.683787 390.932246 
L 909.812575 393.792748 
L 916.94086 396.653049 
L 924.068681 399.513163 
L 931.196074 402.373105 
L 938.323071 405.232889 
L 945.449703 408.092526 
L 952.575998 410.952027 
L 959.701982 413.811404 
L 966.827677 416.670665 
L 973.953107 419.52982 
L 981.078292 422.388876 
L 988.203251 425.247842 
L 995.328 428.106723 
" clip-path="url(#p7c7b3fc5b7)" style="fill: none; stroke: #d0e1f2; stroke-width: 1.5; stroke-linecap: square"/>
   </g>
   <g id="line2d_54">
    <path d="M 138.24 185.251199 
L 173.959495 184.642259 
L 201.235857 184.002717 
L 223.640091 183.343091 
L 242.877059 182.681378 
L 259.89473 182.046165 
L 275.27493 181.479976 
L 289.400523 181.041494 
L 302.536866 180.80408 
L 314.875421 180.847235 
L 326.558843 181.239638 
L 337.696236 182.018494 
L 348.372887 183.176129 
L 358.656697 184.66288 
L 368.602581 186.40422 
L 378.25556 188.321188 
L 387.652976 190.344723 
L 396.826125 192.42155 
L 405.801478 194.514081 
L 414.601604 196.597588 
L 423.245883 198.656856 
L 431.751068 200.683256 
L 440.131722 202.672532 
L 448.400572 204.623234 
L 456.568792 206.535651 
L 464.646235 208.411107 
L 472.641621 210.251508 
L 480.562696 212.059043 
L 488.416365 213.836007 
L 496.208797 215.584686 
L 503.945519 217.307287 
L 511.631497 219.005906 
L 519.271204 220.682504 
L 526.86867 222.338902 
L 534.427542 223.976784 
L 541.95112 225.597695 
L 549.442395 227.203057 
L 556.904085 228.794167 
L 564.338661 230.372216 
L 571.748371 231.93829 
L 579.135266 233.493382 
L 586.501217 235.0384 
L 593.84793 236.574174 
L 601.176967 238.101462 
L 608.489756 239.620956 
L 615.787604 241.133293 
L 623.071708 242.639051 
L 630.343166 244.138763 
L 637.602985 245.632915 
L 644.852088 247.121954 
L 652.091324 248.606288 
L 659.32147 250.086294 
L 666.543243 251.562315 
L 673.757302 253.034667 
L 680.964249 254.503641 
L 688.164643 255.969504 
L 695.358996 257.432499 
L 702.547777 258.892854 
L 709.731423 260.350775 
L 716.910331 261.806452 
L 724.08487 263.260061 
L 731.25538 264.711764 
L 738.422171 266.161709 
L 745.585533 267.610032 
L 752.745731 269.056861 
L 759.903009 270.502311 
L 767.057593 271.946488 
L 774.209691 273.389492 
L 781.359494 274.831413 
L 788.507179 276.272336 
L 795.65291 277.712336 
L 802.796837 279.151487 
L 809.939099 280.589852 
L 817.079824 282.027493 
L 824.21913 283.464465 
L 831.357126 284.90082 
L 838.493913 286.336606 
L 845.629584 287.771866 
L 852.764224 289.206641 
L 859.897913 290.640968 
L 867.030724 292.074882 
L 874.162723 293.508413 
L 881.293974 294.941593 
L 888.424534 296.374447 
L 895.554455 297.807 
L 902.683787 299.239276 
L 909.812575 300.671297 
L 916.94086 302.10308 
L 924.068681 303.534646 
L 931.196074 304.96601 
L 938.323071 306.397188 
L 945.449703 307.828194 
L 952.575998 309.259041 
L 959.701982 310.689742 
L 966.827677 312.120308 
L 973.953107 313.550749 
L 981.078292 314.981075 
L 988.203251 316.411294 
L 995.328 317.841414 
" clip-path="url(#p7c7b3fc5b7)" style="fill: none; stroke: #08306b; stroke-width: 1.5; stroke-linecap: square"/>
    <defs>
     <path id="mee94db04e9" d="M 0 1.5 
C 0.397805 1.5 0.77937 1.341951 1.06066 1.06066 
C 1.341951 0.77937 1.5 0.397805 1.5 0 
C 1.5 -0.397805 1.341951 -0.77937 1.06066 -1.06066 
C 0.77937 -1.341951 0.397805 -1.5 0 -1.5 
C -0.397805 -1.5 -0.77937 -1.341951 -1.06066 -1.06066 
C -1.341951 -0.77937 -1.5 -0.397805 -1.5 0 
C -1.5 0.397805 -1.341951 0.77937 -1.06066 1.06066 
C -0.77937 1.341951 -0.397805 1.5 0 1.5 
z
" style="stroke: #08306b"/>
    </defs>
    <g clip-path="url(#p7c7b3fc5b7)">
     <use xlink:href="#mee94db04e9" x="138.24" y="185.251199" style="fill: #08306b; stroke: #08306b"/>
     <use xlink:href="#mee94db04e9" x="173.959495" y="184.642259" style="fill: #08306b; stroke: #08306b"/>
     <use xlink:href="#mee94db04e9" x="201.235857" y="184.002717" style="fill: #08306b; stroke: #08306b"/>
     <use xlink:href="#mee94db04e9" x="223.640091" y="183.343091" style="fill: #08306b; stroke: #08306b"/>
     <use xlink:href="#mee94db04e9" x="242.877059" y="182.681378" style="fill: #08306b; stroke: #08306b"/>
     <use xlink:href="#mee94db04e9" x="259.89473" y="182.046165" style="fill: #08306b; stroke: #08306b"/>
     <use xlink:href="#mee94db04e9" x="275.27493" y="181.479976" style="fill: #08306b; stroke: #08306b"/>
     <use xlink:href="#mee94db04e9" x="289.400523" y="181.041494" style="fill: #08306b; stroke: #08306b"/>
     <use xlink:href="#mee94db04e9" x="302.536866" y="180.80408" style="fill: #08306b; stroke: #08306b"/>
     <use xlink:href="#mee94db04e9" x="314.875421" y="180.847235" style="fill: #08306b; stroke: #08306b"/>
     <use xlink:href="#mee94db04e9" x="326.558843" y="181.239638" style="fill: #08306b; stroke: #08306b"/>
     <use xlink:href="#mee94db04e9" x="337.696236" y="182.018494" style="fill: #08306b; stroke: #08306b"/>
     <use xlink:href="#mee94db04e9" x="348.372887" y="183.176129" style="fill: #08306b; stroke: #08306b"/>
     <use xlink:href="#mee94db04e9" x="358.656697" y="184.66288" style="fill: #08306b; stroke: #08306b"/>
     <use xlink:href="#mee94db04e9" x="368.602581" y="186.40422" style="fill: #08306b; stroke: #08306b"/>
     <use xlink:href="#mee94db04e9" x="378.25556" y="188.321188" style="fill: #08306b; stroke: #08306b"/>
     <use xlink:href="#mee94db04e9" x="387.652976" y="190.344723" style="fill: #08306b; stroke: #08306b"/>
     <use xlink:href="#mee94db04e9" x="396.826125" y="192.42155" style="fill: #08306b; stroke: #08306b"/>
     <use xlink:href="#mee94db04e9" x="405.801478" y="194.514081" style="fill: #08306b; stroke: #08306b"/>
     <use xlink:href="#mee94db04e9" x="414.601604" y="196.597588" style="fill: #08306b; stroke: #08306b"/>
     <use xlink:href="#mee94db04e9" x="423.245883" y="198.656856" style="fill: #08306b; stroke: #08306b"/>
     <use xlink:href="#mee94db04e9" x="431.751068" y="200.683256" style="fill: #08306b; stroke: #08306b"/>
     <use xlink:href="#mee94db04e9" x="440.131722" y="202.672532" style="fill: #08306b; stroke: #08306b"/>
     <use xlink:href="#mee94db04e9" x="448.400572" y="204.623234" style="fill: #08306b; stroke: #08306b"/>
     <use xlink:href="#mee94db04e9" x="456.568792" y="206.535651" style="fill: #08306b; stroke: #08306b"/>
     <use xlink:href="#mee94db04e9" x="464.646235" y="208.411107" style="fill: #08306b; stroke: #08306b"/>
     <use xlink:href="#mee94db04e9" x="472.641621" y="210.251508" style="fill: #08306b; stroke: #08306b"/>
     <use xlink:href="#mee94db04e9" x="480.562696" y="212.059043" style="fill: #08306b; stroke: #08306b"/>
     <use xlink:href="#mee94db04e9" x="488.416365" y="213.836007" style="fill: #08306b; stroke: #08306b"/>
     <use xlink:href="#mee94db04e9" x="496.208797" y="215.584686" style="fill: #08306b; stroke: #08306b"/>
     <use xlink:href="#mee94db04e9" x="503.945519" y="217.307287" style="fill: #08306b; stroke: #08306b"/>
     <use xlink:href="#mee94db04e9" x="511.631497" y="219.005906" style="fill: #08306b; stroke: #08306b"/>
     <use xlink:href="#mee94db04e9" x="519.271204" y="220.682504" style="fill: #08306b; stroke: #08306b"/>
     <use xlink:href="#mee94db04e9" x="526.86867" y="222.338902" style="fill: #08306b; stroke: #08306b"/>
     <use xlink:href="#mee94db04e9" x="534.427542" y="223.976784" style="fill: #08306b; stroke: #08306b"/>
     <use xlink:href="#mee94db04e9" x="541.95112" y="225.597695" style="fill: #08306b; stroke: #08306b"/>
     <use xlink:href="#mee94db04e9" x="549.442395" y="227.203057" style="fill: #08306b; stroke: #08306b"/>
     <use xlink:href="#mee94db04e9" x="556.904085" y="228.794167" style="fill: #08306b; stroke: #08306b"/>
     <use xlink:href="#mee94db04e9" x="564.338661" y="230.372216" style="fill: #08306b; stroke: #08306b"/>
     <use xlink:href="#mee94db04e9" x="571.748371" y="231.93829" style="fill: #08306b; stroke: #08306b"/>
     <use xlink:href="#mee94db04e9" x="579.135266" y="233.493382" style="fill: #08306b; stroke: #08306b"/>
     <use xlink:href="#mee94db04e9" x="586.501217" y="235.0384" style="fill: #08306b; stroke: #08306b"/>
     <use xlink:href="#mee94db04e9" x="593.84793" y="236.574174" style="fill: #08306b; stroke: #08306b"/>
     <use xlink:href="#mee94db04e9" x="601.176967" y="238.101462" style="fill: #08306b; stroke: #08306b"/>
     <use xlink:href="#mee94db04e9" x="608.489756" y="239.620956" style="fill: #08306b; stroke: #08306b"/>
     <use xlink:href="#mee94db04e9" x="615.787604" y="241.133293" style="fill: #08306b; stroke: #08306b"/>
     <use xlink:href="#mee94db04e9" x="623.071708" y="242.639051" style="fill: #08306b; stroke: #08306b"/>
     <use xlink:href="#mee94db04e9" x="630.343166" y="244.138763" style="fill: #08306b; stroke: #08306b"/>
     <use xlink:href="#mee94db04e9" x="637.602985" y="245.632915" style="fill: #08306b; stroke: #08306b"/>
     <use xlink:href="#mee94db04e9" x="644.852088" y="247.121954" style="fill: #08306b; stroke: #08306b"/>
     <use xlink:href="#mee94db04e9" x="652.091324" y="248.606288" style="fill: #08306b; stroke: #08306b"/>
     <use xlink:href="#mee94db04e9" x="659.32147" y="250.086294" style="fill: #08306b; stroke: #08306b"/>
     <use xlink:href="#mee94db04e9" x="666.543243" y="251.562315" style="fill: #08306b; stroke: #08306b"/>
     <use xlink:href="#mee94db04e9" x="673.757302" y="253.034667" style="fill: #08306b; stroke: #08306b"/>
     <use xlink:href="#mee94db04e9" x="680.964249" y="254.503641" style="fill: #08306b; stroke: #08306b"/>
     <use xlink:href="#mee94db04e9" x="688.164643" y="255.969504" style="fill: #08306b; stroke: #08306b"/>
     <use xlink:href="#mee94db04e9" x="695.358996" y="257.432499" style="fill: #08306b; stroke: #08306b"/>
     <use xlink:href="#mee94db04e9" x="702.547777" y="258.892854" style="fill: #08306b; stroke: #08306b"/>
     <use xlink:href="#mee94db04e9" x="709.731423" y="260.350775" style="fill: #08306b; stroke: #08306b"/>
     <use xlink:href="#mee94db04e9" x="716.910331" y="261.806452" style="fill: #08306b; stroke: #08306b"/>
     <use xlink:href="#mee94db04e9" x="724.08487" y="263.260061" style="fill: #08306b; stroke: #08306b"/>
     <use xlink:href="#mee94db04e9" x="731.25538" y="264.711764" style="fill: #08306b; stroke: #08306b"/>
     <use xlink:href="#mee94db04e9" x="738.422171" y="266.161709" style="fill: #08306b; stroke: #08306b"/>
     <use xlink:href="#mee94db04e9" x="745.585533" y="267.610032" style="fill: #08306b; stroke: #08306b"/>
     <use xlink:href="#mee94db04e9" x="752.745731" y="269.056861" style="fill: #08306b; stroke: #08306b"/>
     <use xlink:href="#mee94db04e9" x="759.903009" y="270.502311" style="fill: #08306b; stroke: #08306b"/>
     <use xlink:href="#mee94db04e9" x="767.057593" y="271.946488" style="fill: #08306b; stroke: #08306b"/>
     <use xlink:href="#mee94db04e9" x="774.209691" y="273.389492" style="fill: #08306b; stroke: #08306b"/>
     <use xlink:href="#mee94db04e9" x="781.359494" y="274.831413" style="fill: #08306b; stroke: #08306b"/>
     <use xlink:href="#mee94db04e9" x="788.507179" y="276.272336" style="fill: #08306b; stroke: #08306b"/>
     <use xlink:href="#mee94db04e9" x="795.65291" y="277.712336" style="fill: #08306b; stroke: #08306b"/>
     <use xlink:href="#mee94db04e9" x="802.796837" y="279.151487" style="fill: #08306b; stroke: #08306b"/>
     <use xlink:href="#mee94db04e9" x="809.939099" y="280.589852" style="fill: #08306b; stroke: #08306b"/>
     <use xlink:href="#mee94db04e9" x="817.079824" y="282.027493" style="fill: #08306b; stroke: #08306b"/>
     <use xlink:href="#mee94db04e9" x="824.21913" y="283.464465" style="fill: #08306b; stroke: #08306b"/>
     <use xlink:href="#mee94db04e9" x="831.357126" y="284.90082" style="fill: #08306b; stroke: #08306b"/>
     <use xlink:href="#mee94db04e9" x="838.493913" y="286.336606" style="fill: #08306b; stroke: #08306b"/>
     <use xlink:href="#mee94db04e9" x="845.629584" y="287.771866" style="fill: #08306b; stroke: #08306b"/>
     <use xlink:href="#mee94db04e9" x="852.764224" y="289.206641" style="fill: #08306b; stroke: #08306b"/>
     <use xlink:href="#mee94db04e9" x="859.897913" y="290.640968" style="fill: #08306b; stroke: #08306b"/>
     <use xlink:href="#mee94db04e9" x="867.030724" y="292.074882" style="fill: #08306b; stroke: #08306b"/>
     <use xlink:href="#mee94db04e9" x="874.162723" y="293.508413" style="fill: #08306b; stroke: #08306b"/>
     <use xlink:href="#mee94db04e9" x="881.293974" y="294.941593" style="fill: #08306b; stroke: #08306b"/>
     <use xlink:href="#mee94db04e9" x="888.424534" y="296.374447" style="fill: #08306b; stroke: #08306b"/>
     <use xlink:href="#mee94db04e9" x="895.554455" y="297.807" style="fill: #08306b; stroke: #08306b"/>
     <use xlink:href="#mee94db04e9" x="902.683787" y="299.239276" style="fill: #08306b; stroke: #08306b"/>
     <use xlink:href="#mee94db04e9" x="909.812575" y="300.671297" style="fill: #08306b; stroke: #08306b"/>
     <use xlink:href="#mee94db04e9" x="916.94086" y="302.10308" style="fill: #08306b; stroke: #08306b"/>
     <use xlink:href="#mee94db04e9" x="924.068681" y="303.534646" style="fill: #08306b; stroke: #08306b"/>
     <use xlink:href="#mee94db04e9" x="931.196074" y="304.96601" style="fill: #08306b; stroke: #08306b"/>
     <use xlink:href="#mee94db04e9" x="938.323071" y="306.397188" style="fill: #08306b; stroke: #08306b"/>
     <use xlink:href="#mee94db04e9" x="945.449703" y="307.828194" style="fill: #08306b; stroke: #08306b"/>
     <use xlink:href="#mee94db04e9" x="952.575998" y="309.259041" style="fill: #08306b; stroke: #08306b"/>
     <use xlink:href="#mee94db04e9" x="959.701982" y="310.689742" style="fill: #08306b; stroke: #08306b"/>
     <use xlink:href="#mee94db04e9" x="966.827677" y="312.120308" style="fill: #08306b; stroke: #08306b"/>
     <use xlink:href="#mee94db04e9" x="973.953107" y="313.550749" style="fill: #08306b; stroke: #08306b"/>
     <use xlink:href="#mee94db04e9" x="981.078292" y="314.981075" style="fill: #08306b; stroke: #08306b"/>
     <use xlink:href="#mee94db04e9" x="988.203251" y="316.411294" style="fill: #08306b; stroke: #08306b"/>
     <use xlink:href="#mee94db04e9" x="995.328" y="317.841414" style="fill: #08306b; stroke: #08306b"/>
    </g>
   </g>
   <g id="line2d_55">
    <path d="M 138.24 114.690464 
L 173.959495 121.856877 
L 201.235857 127.329343 
L 223.640091 131.824311 
L 242.877059 135.683831 
L 259.89473 139.098091 
L 275.27493 142.183826 
L 289.400523 145.017848 
L 302.536866 147.653397 
L 314.875421 150.128885 
L 326.558843 152.472934 
L 337.696236 154.707433 
L 348.372887 156.849492 
L 358.656697 158.912737 
L 368.602581 160.908183 
L 378.25556 162.844863 
L 387.652976 164.730269 
L 396.826125 166.570681 
L 405.801478 168.371409 
L 414.601604 170.136981 
L 423.245883 171.871286 
L 431.751068 173.577684 
L 440.131722 175.259097 
L 448.400572 176.918079 
L 456.568792 178.556872 
L 464.646235 180.177452 
L 472.641621 181.781569 
L 480.562696 183.370777 
L 488.416365 184.946461 
L 496.208797 186.509859 
L 503.945519 188.06208 
L 511.631497 189.60412 
L 519.271204 191.136877 
L 526.86867 192.661159 
L 534.427542 194.177698 
L 541.95112 195.687156 
L 549.442395 197.190133 
L 556.904085 198.687174 
L 564.338661 200.178775 
L 571.748371 201.665388 
L 579.135266 203.147423 
L 586.501217 204.625256 
L 593.84793 206.099229 
L 601.176967 207.569656 
L 608.489756 209.036824 
L 615.787604 210.500993 
L 623.071708 211.962405 
L 630.343166 213.42128 
L 637.602985 214.87782 
L 644.852088 216.33221 
L 652.091324 217.78462 
L 659.32147 219.235207 
L 666.543243 220.684114 
L 673.757302 222.131472 
L 680.964249 223.577405 
L 688.164643 225.022022 
L 695.358996 226.465427 
L 702.547777 227.907715 
L 709.731423 229.348972 
L 716.910331 230.789279 
L 724.08487 232.228709 
L 731.25538 233.66733 
L 738.422171 235.105206 
L 745.585533 236.542394 
L 752.745731 237.978946 
L 759.903009 239.414913 
L 767.057593 240.85034 
L 774.209691 242.285268 
L 781.359494 243.719735 
L 788.507179 245.153777 
L 795.65291 246.587428 
L 802.796837 248.020716 
L 809.939099 249.45367 
L 817.079824 250.886316 
L 824.21913 252.318677 
L 831.357126 253.750776 
L 838.493913 255.182632 
L 845.629584 256.614264 
L 852.764224 258.045689 
L 859.897913 259.476923 
L 867.030724 260.907981 
L 874.162723 262.338877 
L 881.293974 263.769622 
L 888.424534 265.200228 
L 895.554455 266.630707 
L 902.683787 268.061067 
L 909.812575 269.491318 
L 916.94086 270.921468 
L 924.068681 272.351525 
L 931.196074 273.781496 
L 938.323071 275.211388 
L 945.449703 276.641206 
L 952.575998 278.070957 
L 959.701982 279.500646 
L 966.827677 280.930276 
L 973.953107 282.359854 
L 981.078292 283.789382 
L 988.203251 285.218864 
L 995.328 286.648305 
" clip-path="url(#p7c7b3fc5b7)" style="fill: none; stroke: #d0e1f2; stroke-width: 1.5; stroke-linecap: square"/>
   </g>
   <g id="patch_3">
    <path d="M 138.24 483.41952 
L 138.24 65.18016 
" style="fill: none; stroke: #000000; stroke-width: 0.8; stroke-linejoin: miter; stroke-linecap: square"/>
   </g>
   <g id="patch_4">
    <path d="M 995.328 483.41952 
L 995.328 65.18016 
" style="fill: none; stroke: #000000; stroke-width: 0.8; stroke-linejoin: miter; stroke-linecap: square"/>
   </g>
   <g id="patch_5">
    <path d="M 138.24 483.41952 
L 995.328 483.41952 
" style="fill: none; stroke: #000000; stroke-width: 0.8; stroke-linejoin: miter; stroke-linecap: square"/>
   </g>
   <g id="patch_6">
    <path d="M 138.24 65.18016 
L 995.328 65.18016 
" style="fill: none; stroke: #000000; stroke-width: 0.8; stroke-linejoin: miter; stroke-linecap: square"/>
   </g>
   <g id="legend_1">
    <g id="patch_7">
     <path d="M 905.406125 133.43641 
L 988.328 133.43641 
Q 990.328 133.43641 990.328 131.43641 
L 990.328 72.18016 
Q 990.328 70.18016 988.328 70.18016 
L 905.406125 70.18016 
Q 903.406125 70.18016 903.406125 72.18016 
L 903.406125 131.43641 
Q 903.406125 133.43641 905.406125 133.43641 
z
" style="fill: #ffffff; opacity: 0.8; stroke: #cccccc; stroke-linejoin: miter"/>
    </g>
    <g id="line2d_56">
     <path d="M 907.406125 78.278598 
L 917.406125 78.278598 
L 927.406125 78.278598 
" style="fill: none; stroke: #4a98c9; stroke-width: 1.5; stroke-linecap: square"/>
     <g>
      <use xlink:href="#m5c5d446039" x="917.406125" y="78.278598" style="fill: #4a98c9; stroke: #4a98c9"/>
     </g>
    </g>
    <g id="text_12">
     <!-- sensitivity -->
     <g transform="translate(935.406125 81.778598)scale(0.1 -0.1)">
      <use xlink:href="#DejaVuSans-73"/>
      <use xlink:href="#DejaVuSans-65" x="52.099609"/>
      <use xlink:href="#DejaVuSans-6e" x="113.623047"/>
      <use xlink:href="#DejaVuSans-73" x="177.001953"/>
      <use xlink:href="#DejaVuSans-69" x="229.101562"/>
      <use xlink:href="#DejaVuSans-74" x="256.884766"/>
      <use xlink:href="#DejaVuSans-69" x="296.09375"/>
      <use xlink:href="#DejaVuSans-76" x="323.876953"/>
      <use xlink:href="#DejaVuSans-69" x="383.056641"/>
      <use xlink:href="#DejaVuSans-74" x="410.839844"/>
      <use xlink:href="#DejaVuSans-79" x="450.048828"/>
     </g>
    </g>
    <g id="line2d_57">
     <path d="M 907.406125 93.778598 
L 917.406125 93.778598 
L 927.406125 93.778598 
" style="fill: none; stroke: #d0e1f2; stroke-width: 1.5; stroke-linecap: square"/>
    </g>
    <g id="text_13">
     <!-- $\mathcal{O}(\kappa^{-2})$ -->
     <g transform="translate(935.406125 97.278598)scale(0.1 -0.1)">
      <defs>
       <path id="STIXNonUnicode-Italic-e23b" d="M 2304 4237 
L 2342 4090 
Q 1773 3923 1350 3158 
Q 928 2394 928 1472 
Q 928 838 1216 515 
Q 1504 192 1984 192 
Q 2349 192 2739 435 
Q 3130 678 3430 1101 
Q 3968 1862 3968 2944 
Q 3968 3398 3744 3660 
Q 3520 3923 3219 3923 
Q 2918 3923 2691 3728 
Q 2464 3533 2464 3232 
Q 2464 2995 2694 2995 
Q 2714 2995 2784 3011 
Q 2854 3027 2918 3027 
Q 3104 3027 3104 2816 
Q 3104 2637 2944 2496 
Q 2784 2355 2592 2355 
Q 2323 2355 2179 2534 
Q 2035 2714 2035 2995 
Q 2035 3475 2505 3878 
Q 2976 4282 3571 4282 
Q 4096 4282 4381 3882 
Q 4666 3482 4666 2938 
Q 4666 2400 4422 1837 
Q 4179 1274 3808 877 
Q 2931 -64 1754 -64 
Q 1101 -64 672 304 
Q 243 672 243 1363 
Q 243 1933 435 2457 
Q 627 2982 931 3347 
Q 1235 3712 1596 3949 
Q 1958 4186 2304 4237 
z
" transform="scale(0.015625)"/>
      </defs>
      <use xlink:href="#STIXNonUnicode-Italic-e23b" transform="translate(0 0.765625)"/>
      <use xlink:href="#DejaVuSans-28" transform="translate(73.699982 0.765625)"/>
      <use xlink:href="#DejaVuSans-Oblique-3ba" transform="translate(112.713654 0.765625)"/>
      <use xlink:href="#DejaVuSans-2212" transform="translate(176.115346 39.046875)scale(0.7)"/>
      <use xlink:href="#DejaVuSans-32" transform="translate(234.76769 39.046875)scale(0.7)"/>
      <use xlink:href="#DejaVuSans-29" transform="translate(282.038198 0.765625)"/>
     </g>
    </g>
    <g id="line2d_58">
     <path d="M 907.406125 108.456723 
L 917.406125 108.456723 
L 927.406125 108.456723 
" style="fill: none; stroke: #08306b; stroke-width: 1.5; stroke-linecap: square"/>
     <g>
      <use xlink:href="#mee94db04e9" x="917.406125" y="108.456723" style="fill: #08306b; stroke: #08306b"/>
     </g>
    </g>
    <g id="text_14">
     <!-- elasticity -->
     <g transform="translate(935.406125 111.956723)scale(0.1 -0.1)">
      <use xlink:href="#DejaVuSans-65"/>
      <use xlink:href="#DejaVuSans-6c" x="61.523438"/>
      <use xlink:href="#DejaVuSans-61" x="89.306641"/>
      <use xlink:href="#DejaVuSans-73" x="150.585938"/>
      <use xlink:href="#DejaVuSans-74" x="202.685547"/>
      <use xlink:href="#DejaVuSans-69" x="241.894531"/>
      <use xlink:href="#DejaVuSans-63" x="269.677734"/>
      <use xlink:href="#DejaVuSans-69" x="324.658203"/>
      <use xlink:href="#DejaVuSans-74" x="352.441406"/>
      <use xlink:href="#DejaVuSans-79" x="391.650391"/>
     </g>
    </g>
    <g id="line2d_59">
     <path d="M 907.406125 123.856723 
L 917.406125 123.856723 
L 927.406125 123.856723 
" style="fill: none; stroke: #d0e1f2; stroke-width: 1.5; stroke-linecap: square"/>
    </g>
    <g id="text_15">
     <!-- $\mathcal{O}(\kappa^{-1})$ -->
     <g transform="translate(935.406125 127.356723)scale(0.1 -0.1)">
      <use xlink:href="#STIXNonUnicode-Italic-e23b" transform="translate(0 0.684375)"/>
      <use xlink:href="#DejaVuSans-28" transform="translate(73.699982 0.684375)"/>
      <use xlink:href="#DejaVuSans-Oblique-3ba" transform="translate(112.713654 0.684375)"/>
      <use xlink:href="#DejaVuSans-2212" transform="translate(176.115346 38.965625)scale(0.7)"/>
      <use xlink:href="#DejaVuSans-31" transform="translate(234.76769 38.965625)scale(0.7)"/>
      <use xlink:href="#DejaVuSans-29" transform="translate(282.038198 0.684375)"/>
     </g>
    </g>
   </g>
  </g>
 </g>
 <defs>
  <clipPath id="p7c7b3fc5b7">
   <rect x="138.24" y="65.18016" width="857.088" height="418.23936"/>
  </clipPath>
 </defs>
</svg>
